<svg width="594" height="396" viewBox="0 0 594 396" fill="none" xmlns="http://www.w3.org/2000/svg">
<path d="M27.4899 379.291C46.2395 393.559 70.5376 394.276 94.0243 392.523C97.3039 392.279 100.56 391.992 103.787 391.682C103.806 391.677 103.832 391.679 103.851 391.674C104.006 391.658 104.162 391.642 104.31 391.633C104.976 391.567 105.642 391.501 106.302 391.435L106.146 391.749L105.657 392.724C105.833 392.398 106.008 392.078 106.184 391.752C106.236 391.654 106.294 391.557 106.345 391.459C112.43 380.274 118.464 368.679 120.003 355.908C121.595 342.652 117.123 327.642 106.078 321.127C104.63 320.275 103.096 319.596 101.505 319.103C100.845 318.891 100.175 318.719 99.498 318.567C95.3558 317.596 91.0434 317.807 87.0041 319.179C82.9649 320.552 79.3447 323.036 76.5156 326.377C73.6866 329.717 71.7509 333.793 70.9076 338.186C70.0643 342.579 70.3438 347.129 71.7174 351.37C62.3536 341.228 64.1003 324.774 67.3304 311.022C70.5667 297.271 74.4845 281.97 67.9022 269.618C64.2431 262.744 57.8085 258.478 50.5873 256.76C50.3658 256.709 50.1446 256.659 49.9226 256.615C41.3187 254.775 32.3741 256.43 24.8754 261.251C11.0678 270.443 3.97602 287.869 1.67434 304.94C-2.0341 332.41 6.17274 363.068 27.4899 379.291Z" fill="#F1F1F1"/>
<path d="M33.8063 335.099C34.3498 341.136 35.7256 347.057 37.8902 352.675C39.8852 357.646 42.5741 362.276 45.8679 366.409C52.5963 374.94 61.4931 381.354 71.1553 385.628C78.5433 388.817 86.2841 391.01 94.1936 392.153C97.4682 391.909 100.72 391.623 103.941 391.315C103.96 391.31 103.986 391.312 104.006 391.306C104.16 391.291 104.316 391.275 104.464 391.266C105.129 391.201 105.794 391.135 106.452 391.069L106.297 391.382L105.808 392.353C105.984 392.028 106.159 391.71 106.335 391.385C106.386 391.287 106.444 391.19 106.496 391.093C100.566 384.865 96.1385 377.231 93.5846 368.829C91.0307 360.427 90.4246 351.502 91.8172 342.802C93.2744 334.163 96.648 326.01 101.663 319.007C101.003 318.796 100.335 318.624 99.6589 318.473C97.753 321.219 96.0812 324.137 94.6631 327.194C89.5745 338.095 87.9511 350.433 90.0332 362.382C91.9688 373.195 96.7911 383.202 103.934 391.227C103.308 391.18 102.677 391.127 102.059 391.067C90.3532 390.022 78.6713 387.369 68.054 381.936C58.9786 377.405 51.0997 370.591 45.111 362.094C38.6808 352.747 35.8474 341.504 35.3607 330.076C34.8446 317.843 36.3506 305.394 38.9994 293.496C41.7042 281.3 45.8148 269.497 51.2396 258.353C51.3609 258.1 51.3854 257.808 51.308 257.537C51.2306 257.265 51.0572 257.036 50.8238 256.896C50.6292 256.757 50.3907 256.706 50.1601 256.752C50.0472 256.783 49.9426 256.841 49.854 256.921C49.7653 257.001 49.695 257.101 49.6481 257.214C48.9789 258.591 48.3221 259.968 47.6903 261.361C42.4285 272.964 38.5545 285.212 36.1576 297.822C33.8306 309.986 32.5886 322.711 33.8063 335.099Z" fill="white"/>
<path d="M272.435 395.765H0.713303C0.524155 395.765 0.342755 395.675 0.209007 395.515C0.07526 395.355 0.00012207 395.138 0.00012207 394.912C0.00012207 394.686 0.07526 394.469 0.209007 394.309C0.342755 394.149 0.524155 394.059 0.713303 394.059H272.435C272.624 394.059 272.806 394.149 272.939 394.309C273.073 394.469 273.148 394.686 273.148 394.912C273.148 395.138 273.073 395.355 272.939 395.515C272.806 395.675 272.624 395.765 272.435 395.765Z" fill="#CBCBCB"/>
<path d="M190.649 194.937L178.344 131.873L172.938 85.2942L160.962 93.3969L162.617 144.727L181.731 197.91C181.117 199.134 180.864 200.521 181.006 201.895C181.147 203.269 181.676 204.569 182.525 205.627C183.375 206.686 184.506 207.457 185.775 207.842C187.044 208.227 188.394 208.208 189.654 207.789C190.913 207.369 192.024 206.567 192.846 205.485C193.669 204.403 194.165 203.09 194.271 201.712C194.378 200.334 194.091 198.955 193.446 197.748C192.801 196.542 191.827 195.563 190.649 194.937V194.937Z" fill="#FFB7B7"/>
<path d="M75.9781 199.742L79.3858 135.555L78.2571 88.7058L94.0959 94.8934L96.7401 145.868L85.2186 201.325C85.9969 202.441 86.4397 203.774 86.4909 205.153C86.5421 206.532 86.1992 207.897 85.5059 209.072C84.8126 210.247 83.8002 211.181 82.5975 211.754C81.3947 212.327 80.0559 212.514 78.7513 212.29C77.4466 212.067 76.2351 211.443 75.2707 210.499C74.3064 209.555 73.6327 208.332 73.3355 206.987C73.0382 205.642 73.1307 204.235 73.6013 202.945C74.0719 201.655 74.8992 200.54 75.9781 199.742L75.9781 199.742Z" fill="#FFB7B7"/>
<path d="M108.936 387.235L117.197 387.235L121.128 353.971L108.934 353.971L108.936 387.235Z" fill="#FFB7B7"/>
<path d="M107.309 383.824L123.197 383.823H123.197C125.883 383.824 128.458 384.955 130.357 386.969C132.256 388.983 133.322 391.714 133.323 394.562V394.911L107.309 394.912L107.309 383.824Z" fill="#2F2E41"/>
<path d="M139.826 383.361L147.671 384.676L156.085 352.5L144.507 350.559L139.826 383.361Z" fill="#FFB7B7"/>
<path d="M138.181 380.412L153.965 382.873L153.966 382.873C156.634 383.29 159.028 384.757 160.623 386.953C162.217 389.149 162.881 391.893 162.469 394.582L162.418 394.912L136.574 390.882L138.181 380.412Z" fill="#2F2E41"/>
<path d="M106.578 377L106.536 376.763L77.3878 211.024C75.0739 197.718 76.9196 183.983 82.6484 171.872L100.291 134.765L152.933 142.265L159.146 189.509L181.286 279.634L181.264 279.708L152.898 374.468L134.307 375.754L150.775 291.167L120.622 219.139L122.749 375.711L106.578 377Z" fill="#2F2E41"/>
<path d="M154.274 148.412L153.925 147.84C153.863 147.736 147.455 137.608 130.016 144.371C112.214 151.275 98.4203 137.94 98.283 137.804L98.2147 137.737L94.1831 100.042L89.4238 69.441L104.574 66.6528L112.022 61.9651L141.64 61.4119L149.434 67.8424L162.23 69.3053L163.401 97.1881L163.396 97.2185L154.274 148.412Z" fill="#586EC6"/>
<path d="M158.524 99.794V75.9676L162.152 69.0928L162.299 69.0881C165.155 69.1987 167.855 70.4722 169.814 72.6331C173.463 76.4828 175.116 82.8968 174.727 91.6967L174.72 91.8577L158.524 99.794Z" fill="#586EC6"/>
<path d="M95.9271 97.2352L77.3777 94.9138L77.3632 94.691C76.7304 85.045 78.3449 77.8846 82.162 73.4094C85.6262 69.3478 89.5957 69.1018 89.763 69.0934L89.87 69.0881L94.8914 73.8483L95.9271 97.2352Z" fill="#586EC6"/>
<path d="M149.066 51.1765H100.508C99.5087 51.1753 98.5511 50.7637 97.8448 50.0319C97.1385 49.3002 96.7412 48.308 96.7401 47.2732V29.0578C96.7401 21.3512 99.695 13.9602 104.955 8.51084C110.214 3.06144 117.348 0 124.787 0C132.225 0 139.359 3.06144 144.618 8.51084C149.878 13.9602 152.833 21.3512 152.833 29.0578V47.2732C152.832 48.308 152.435 49.3002 151.728 50.0319C151.022 50.7637 150.064 51.1753 149.066 51.1765V51.1765Z" fill="#2F2E41"/>
<path d="M143.974 40.2067C149.395 29.8062 145.751 16.766 135.835 11.0807C125.92 5.39526 113.488 9.21757 108.068 19.618C102.647 30.0185 106.292 43.0586 116.207 48.744C126.122 54.4294 138.554 50.6071 143.974 40.2067Z" fill="#FFB7B7"/>
<path d="M145.864 30.7058H118.746C118.237 30.7051 117.745 30.5103 117.363 30.1579C116.981 29.8055 116.735 29.3196 116.671 28.7914L116.32 25.8562C116.287 25.574 116.166 25.3108 115.977 25.1065C115.787 24.9022 115.54 24.7678 115.271 24.7236C115.002 24.6794 114.726 24.7277 114.486 24.8614C114.246 24.995 114.054 25.2067 113.939 25.4644L112.161 29.4452C111.992 29.8213 111.724 30.1394 111.389 30.3626C111.053 30.5858 110.664 30.7048 110.267 30.7058H106.147C105.856 30.7059 105.568 30.6423 105.301 30.5191C105.035 30.396 104.796 30.2159 104.6 29.9906C104.404 29.7652 104.255 29.4995 104.163 29.2106C104.071 28.9216 104.038 28.6157 104.066 28.3126L105.69 10.5827C105.725 10.2034 105.853 9.84002 106.063 9.5281C106.272 9.21617 106.556 8.96638 106.885 8.80317C119.304 2.74414 131.898 2.75181 144.318 8.82621C144.633 8.98096 144.906 9.21536 145.113 9.50819C145.319 9.80103 145.453 10.1431 145.501 10.5033L147.934 28.2102C147.977 28.5202 147.955 28.8362 147.871 29.1367C147.786 29.4373 147.641 29.7153 147.445 29.952C147.248 30.1887 147.006 30.3785 146.733 30.5086C146.46 30.6387 146.164 30.7059 145.864 30.7058L145.864 30.7058Z" fill="#2F2E41"/>
<path d="M191.236 198.735L190.229 197.68L234.023 151.806H318.893L361.713 106.028H445.486L487.751 61.4119H586.5V62.9046H488.345L446.08 107.521H362.311L319.491 153.299H234.614L191.236 198.735Z" fill="#3F3D56"/>
<path d="M362.978 134.765C377.57 134.765 389.399 122.354 389.399 107.044C389.399 91.7344 377.57 79.3235 362.978 79.3235C348.387 79.3235 336.558 91.7344 336.558 107.044C336.558 122.354 348.387 134.765 362.978 134.765Z" fill="white"/>
<path d="M488.578 69.9411C492.619 69.9411 495.894 66.5042 495.894 62.2646C495.894 58.025 492.619 54.5881 488.578 54.5881C484.537 54.5881 481.261 58.025 481.261 62.2646C481.261 66.5042 484.537 69.9411 488.578 69.9411Z" fill="#CBCBCB"/>
<path d="M586.131 69.9411C590.172 69.9411 593.447 66.5042 593.447 62.2646C593.447 58.025 590.172 54.5881 586.131 54.5881C582.09 54.5881 578.814 58.025 578.814 62.2646C578.814 66.5042 582.09 69.9411 586.131 69.9411Z" fill="#CBCBCB"/>
<path d="M362.978 135.618C357.592 135.618 352.327 133.942 347.848 130.802C343.37 127.663 339.879 123.2 337.818 117.979C335.757 112.758 335.217 107.013 336.268 101.47C337.319 95.9271 339.913 90.8358 343.721 86.8397C347.53 82.8436 352.383 80.1223 357.665 79.0197C362.948 77.9172 368.424 78.4831 373.4 80.6457C378.376 82.8084 382.63 86.4707 385.622 91.1696C388.615 95.8685 390.212 101.393 390.212 107.044C390.204 114.62 387.332 121.883 382.226 127.239C377.121 132.596 370.199 135.609 362.978 135.618ZM362.978 79.9746C357.876 79.9746 352.887 81.5622 348.645 84.5367C344.402 87.5111 341.095 91.7388 339.142 96.6851C337.189 101.631 336.678 107.074 337.674 112.325C338.669 117.576 341.127 122.4 344.735 126.185C348.343 129.971 352.94 132.549 357.945 133.594C362.95 134.638 368.137 134.102 372.852 132.053C377.566 130.005 381.595 126.535 384.43 122.083C387.265 117.632 388.778 112.398 388.778 107.044C388.771 99.8674 386.05 92.9868 381.213 87.912C376.376 82.8372 369.819 79.9827 362.978 79.9746V79.9746Z" fill="#3F3D56"/>
<path d="M362.978 127.088C373.529 127.088 382.082 118.114 382.082 107.044C382.082 95.9741 373.529 87 362.978 87C352.427 87 343.874 95.9741 343.874 107.044C343.874 118.114 352.427 127.088 362.978 127.088Z" fill="#15D1C0"/>
<path d="M361.118 115.147L355.255 107.752L358.664 105.151L361.441 108.652L370.818 98.9412L373.953 101.856L361.118 115.147Z" fill="white"/>
<path d="M232.908 179.97C247.499 179.97 259.328 167.56 259.328 152.25C259.328 136.94 247.499 124.529 232.908 124.529C218.316 124.529 206.487 136.94 206.487 152.25C206.487 167.56 218.316 179.97 232.908 179.97Z" fill="white"/>
<path d="M233.314 180.823C228.008 180.823 222.822 179.173 218.41 176.08C213.998 172.987 210.56 168.591 208.529 163.448C206.499 158.305 205.967 152.645 207.003 147.185C208.038 141.725 210.593 136.71 214.345 132.773C218.096 128.837 222.877 126.156 228.08 125.07C233.284 123.984 238.678 124.541 243.58 126.672C248.482 128.802 252.672 132.41 255.62 137.039C258.568 141.667 260.141 147.109 260.141 152.676C260.133 160.139 257.304 167.293 252.275 172.57C247.246 177.847 240.427 180.815 233.314 180.823ZM233.314 126.011C228.288 126.011 223.374 127.575 219.194 130.505C215.015 133.435 211.757 137.599 209.834 142.472C207.91 147.344 207.407 152.706 208.387 157.879C209.368 163.051 211.789 167.803 215.343 171.532C218.897 175.261 223.426 177.801 228.356 178.83C233.286 179.859 238.396 179.33 243.04 177.312C247.684 175.294 251.653 171.876 254.446 167.491C257.239 163.106 258.729 157.95 258.729 152.676C258.722 145.607 256.042 138.829 251.277 133.83C246.512 128.831 240.052 126.019 233.314 126.011V126.011Z" fill="#3F3D56"/>
<path d="M233.314 172.294C243.64 172.294 252.012 163.511 252.012 152.676C252.012 141.842 243.64 133.059 233.314 133.059C222.988 133.059 214.616 141.842 214.616 152.676C214.616 163.511 222.988 172.294 233.314 172.294Z" fill="#15D1C0"/>
<path d="M231.605 161.206L225.998 153.422L229.259 150.684L231.914 154.369L240.883 144.147L243.883 147.215L231.605 161.206Z" fill="white"/>
</svg>
