<svg width="575" height="424" viewBox="0 0 575 424" fill="none" xmlns="http://www.w3.org/2000/svg">
<path d="M304.996 385.123L301.641 374.407C301.641 374.407 298.831 366.801 299.284 362.723C299.737 358.644 298.341 354.191 298.341 354.191L301.1 339.775C301.1 339.775 301.251 338.205 301.243 336.134C301.243 332.683 300.756 327.842 298.374 326.584C294.567 324.568 286.763 307.526 285.128 307.526C283.492 307.526 278.234 306.427 278.234 304.579C278.24 304.512 278.24 304.444 278.234 304.377C278.234 304.377 278.234 304.335 278.234 304.314C278.234 304.293 278.209 304.217 278.192 304.167L278.167 304.095L278.091 303.927L278.066 303.881C277.861 303.514 277.605 303.178 277.307 302.883C284.411 301.524 291.481 300.029 298.5 298.291H298.24L298.5 298.228C297.568 298.218 296.637 298.154 295.712 298.034L295.506 298.081C285.182 296.666 275.902 288.564 273.378 278.298C270.577 266.934 275.475 255.073 275.257 243.363C275.105 235.953 272.912 228.73 268.921 222.495C268.384 221.653 267.814 220.845 267.218 220.054C269.286 219.046 271.111 217.6 272.57 215.817C274.029 214.034 275.086 211.955 275.669 209.723C276.251 207.491 276.346 205.159 275.946 202.886C275.547 200.614 274.662 198.456 273.353 196.559C273.173 196.298 272.984 196.046 272.791 195.797C274.661 198.912 275.422 202.571 274.948 206.176C274.474 209.781 272.794 213.118 270.183 215.639C271.192 213.798 271.828 211.775 272.054 209.686C272.279 207.598 272.09 205.485 271.498 203.47C270.905 201.455 269.92 199.578 268.6 197.948C267.28 196.317 265.651 194.965 263.808 193.97C261.964 192.975 259.943 192.357 257.86 192.151C255.777 191.946 253.674 192.156 251.672 192.771C249.671 193.386 247.811 194.393 246.199 195.734C244.588 197.075 243.257 198.723 242.285 200.583C241.945 200.431 241.605 200.28 241.266 200.141C242.322 197.237 244.2 194.706 246.668 192.858C249.137 191.009 252.088 189.923 255.162 189.732C254.848 189.711 254.537 189.703 254.219 189.703C251.096 189.707 248.044 190.639 245.448 192.381C242.852 194.124 240.828 196.598 239.63 199.493C234.883 197.746 229.931 197.022 225.058 198.264C224.153 198.493 223.269 198.802 222.417 199.186L222.635 199.013C221.426 199.525 220.31 200.236 219.335 201.117C217.875 202.469 216.848 204.22 215.611 205.785C214.35 207.348 212.858 208.708 211.187 209.818C211.325 209.75 211.464 209.67 211.606 209.599C205.987 213.589 198.351 214.738 191.927 212.17C190.124 211.446 188.384 210.457 186.476 210.192C185.007 210.01 183.516 210.228 182.161 210.823C182.219 210.777 182.274 210.727 182.337 210.68C180.563 211.412 179.005 212.585 177.808 214.09C175.711 216.687 174.659 219.982 173.908 223.227C173.35 225.531 173.069 227.894 173.07 230.265C173.099 233.304 173.778 236.237 175.586 238.616C178.387 242.261 182.211 243.245 186.203 243.902C186.086 244.323 185.972 244.71 185.872 245.123C183.582 254.216 184.897 263.846 189.541 271.985C194.185 280.123 201.795 286.135 210.768 288.753L211.543 290.075L211.795 290.134C213.653 293.286 215.686 296.826 217.573 300.236C217.674 300.417 217.77 300.598 217.871 300.774L214.303 302.618C213.367 303.102 211.044 304.369 209.757 305.615C209.385 305.937 209.097 306.346 208.918 306.806C208.373 308.641 205.471 313.406 203.467 314.685C201.463 315.965 199.836 322.198 200.02 325.49C200.205 328.781 198.93 328.436 195.663 328.613C192.397 328.789 195.663 333.558 195.663 333.558L195.747 333.878C195.596 334.139 195.424 334.421 195.236 334.72C194.397 336.012 193.294 337.443 192.489 337.367C191.034 337.229 190.128 340.802 190.22 341.349C190.313 341.896 187.679 346.295 186.681 346.754C185.683 347.212 181.419 348.088 182.597 352.187L177.422 357.474L173.229 361.506C173.229 361.506 167.241 358.114 157.529 368.661C158.612 368.559 159.705 368.662 160.75 368.965L160.473 369.099C157.915 370.316 153.487 372.391 150.212 373.729L132.772 374.272V361.224C132.772 361.224 131.229 357.562 129.417 361.224L128.96 374.407L91.0525 375.64L98.156 368.064L98.2482 367.963C99.0084 367.152 99.5388 366.152 99.7843 365.066C100.03 363.981 99.9816 362.849 99.6446 361.788L70.0062 268.276L69.8008 267.62C69.5094 266.696 68.9626 265.874 68.224 265.249C67.4854 264.625 66.5853 264.224 65.6284 264.093L24.4584 258.516L24.1733 258.478L20.3909 259.509C19.9161 259.639 19.472 259.863 19.0842 260.167C18.6965 260.471 18.373 260.85 18.1325 261.281C17.8921 261.712 17.7396 262.186 17.6838 262.677C17.628 263.168 17.6702 263.665 17.8078 264.139C18.7806 267.506 20.3783 273.003 22.4204 279.91H16.7343L21.0912 317.657L23.7455 332.178C24.4249 335.882 25.2174 339.563 26.1231 343.222C28.3079 352.061 32.6312 370.913 32.7276 381.848L0.858398 416.724V423.808H204.423C204.432 423.832 204.443 423.854 204.457 423.875H303.633C303.633 423.875 302.547 421.952 304.891 419.203C307.235 416.455 306.073 405.553 306.073 405.553C306.073 405.553 304.757 403.811 306.367 399.964C307.977 396.117 304.996 385.123 304.996 385.123ZM52.0588 376.894L46.6494 377.071L41.6175 344.216C45.3453 356.22 48.96 367.643 52.0588 376.894ZM191.353 396.862L187.843 389.673C188.646 389.71 189.441 389.497 190.12 389.063C192.388 387.413 193.747 383.566 193.747 383.566L199.836 376.305L200.339 375.699C201.572 379.155 203.023 381.882 204.184 383.199C207.086 386.499 207.451 396.024 208.344 399.505C209.237 402.986 208.541 401.521 208.344 403.537C208.316 404.03 208.357 404.525 208.465 405.006C204.452 400.684 198.745 396.752 191.353 396.862Z" fill="url(#paint0_linear_244_2201)"/>
<path d="M2.93945 416.8L38.763 377.511L181.05 372.878L205.889 423.875H2.93945V416.8Z" fill="#514E7F"/>
<path opacity="0.2" d="M2.93945 416.8L38.763 377.511L181.05 372.878L205.889 423.875H2.93945V416.8Z" fill="black"/>
<path d="M188.197 413.6V414.967C188.197 415.673 187.92 416.351 187.428 416.85C186.936 417.35 186.268 417.631 185.572 417.631H108.927C107.476 417.631 108.927 414.689 108.927 414.689L108.061 395.422C108.028 394.69 108.246 393.969 108.676 393.381C109.107 392.793 109.725 392.373 110.425 392.194C114.69 391.101 117.626 392.856 117.626 392.856L165.105 391.631C166.088 391.581 167.075 391.628 168.049 391.772C169.772 392.004 171.432 392.587 172.927 393.486C174.423 394.386 175.724 395.583 176.752 397.006L187.663 412.021C188.003 412.476 188.19 413.029 188.197 413.6Z" fill="#514E7F"/>
<path opacity="0.1" d="M188.197 414.801C188.197 415.551 187.919 416.271 187.426 416.802C186.932 417.333 186.263 417.631 185.565 417.631H108.704C107.249 417.631 108.704 414.506 108.704 414.506C108.704 414.506 112.948 412.293 119.249 412.692L175.349 411.386C175.349 411.386 181.975 411.549 185.852 412.003C186.494 412.078 187.088 412.404 187.521 412.92C187.954 413.437 188.194 414.106 188.197 414.801Z" fill="black"/>
<path d="M166.732 394.734H118.465L119.799 409.305L175.707 408.341L166.732 394.734Z" fill="#15D1C0"/>
<path d="M85.1606 405.389V410.407L34.7016 412.427C34.7016 412.427 23.1642 411.649 21.7488 404.654C21.6362 403.922 21.6505 403.177 21.791 402.451C22.3007 399.504 24.8617 394.357 36.1507 391.98L50.0512 390.571H81.0452C81.0452 390.571 85.0469 394.524 85.1606 405.389Z" fill="#514E7F"/>
<path opacity="0.1" d="M85.1606 405.25V410.319L34.7016 412.427C34.7016 412.427 23.1642 411.616 21.7488 404.318C21.6362 403.554 21.6505 402.777 21.791 402.019C21.791 402.019 28.7665 408.81 38.2189 407.813L82.6333 405.822C83.4848 405.677 84.3284 405.486 85.1606 405.25V405.25Z" fill="black"/>
<path opacity="0.1" d="M46.8194 400.349C55.3424 399.91 62.1905 398.368 62.1151 396.905C62.0397 395.442 55.0694 394.613 46.5465 395.052C38.0235 395.491 31.1754 397.033 31.2507 398.496C31.3261 399.959 38.2964 400.789 46.8194 400.349Z" fill="black"/>
<path d="M51.8563 396.93L43.5814 400.978L34.7771 398.916L34.7344 384.715C35.2937 374.35 30.4645 353.603 28.0777 344.202C27.1583 340.568 26.3541 336.906 25.6653 333.216L22.9582 318.786L18.5518 281.29H29.0384L35.204 290.028L51.8563 396.93Z" fill="#514E7F"/>
<path d="M51.8561 396.93L43.5615 400.978L38.2715 370.644C38.3742 365.476 31.813 340.94 31.3851 339.93C26.1549 327.603 21.6738 281.29 21.6738 281.29H28.9883L35.1643 290.013L51.8561 396.93Z" fill="#514E7F"/>
<path opacity="0.15" d="M51.8561 396.93L43.5615 400.978L38.2715 370.644C38.3742 365.476 31.813 340.94 31.3851 339.93C26.1549 327.603 21.6738 281.29 21.6738 281.29H28.9883L35.1643 290.013L51.8561 396.93Z" fill="black"/>
<path d="M100.134 368.227L72.3614 397.33L69.1044 397.56L65.1362 397.845C64.2181 397.91 63.302 397.693 62.5127 397.222C61.7235 396.751 61.0996 396.049 60.7262 395.213C52.3102 376.383 25.4041 285.334 19.7401 266.048C19.6023 265.581 19.5599 265.09 19.6155 264.606C19.6712 264.121 19.8236 263.653 20.064 263.228C20.3043 262.803 20.6277 262.43 21.015 262.131C21.4024 261.832 21.8459 261.613 22.3196 261.487L26.1068 260.475L26.3887 260.508L66.8489 265.906C68.0048 266.061 69.0929 266.539 69.9868 267.284C70.8806 268.029 71.5435 269.011 71.8985 270.116L101.515 362.143C101.853 363.187 101.904 364.303 101.661 365.373C101.419 366.443 100.891 367.429 100.134 368.227V368.227Z" fill="#514E7F"/>
<path opacity="0.1" d="M100.134 368.227L72.3614 397.33L69.1044 397.56L65.1362 397.845C64.2181 397.91 63.302 397.693 62.5127 397.222C61.7235 396.751 61.0996 396.049 60.7262 395.213C52.3102 376.383 25.4041 285.334 19.7401 266.048C19.6023 265.581 19.5599 265.09 19.6155 264.606C19.6712 264.121 19.8236 263.653 20.064 263.228C20.3043 262.803 20.6277 262.43 21.015 262.131C21.4024 261.832 21.8459 261.613 22.3196 261.487L26.1068 260.475L26.3887 260.508L66.8489 265.906C68.0048 266.061 69.0929 266.539 69.9868 267.284C70.8806 268.029 71.5435 269.011 71.8985 270.116L101.515 362.143C101.853 363.187 101.904 364.303 101.661 365.373C101.419 366.443 100.891 367.429 100.134 368.227V368.227Z" fill="black"/>
<path d="M100.068 368.543L72.558 397.625L69.3205 397.856L28.0366 265.319C27.3338 263.797 26.94 262.151 26.8779 260.475L67.7687 265.978C68.7168 266.105 69.6092 266.5 70.3423 267.116C71.0753 267.733 71.6188 268.545 71.9097 269.459L101.511 362.214C101.858 363.302 101.907 364.463 101.653 365.576C101.399 366.69 100.852 367.714 100.068 368.543V368.543Z" fill="#514E7F"/>
<path d="M97.8205 363.936C97.5206 364.449 97.1484 364.915 96.7156 365.32L69.8185 390.571L33.1221 267.76L68.3604 271.284C69.58 271.405 70.7364 271.889 71.6825 272.676C72.6286 273.462 73.3216 274.515 73.6734 275.7L98.427 358.932C98.6748 359.763 98.7489 360.637 98.6445 361.498C98.5401 362.359 98.2595 363.19 97.8205 363.936V363.936Z" fill="#15D1C0"/>
<path opacity="0.1" d="M97.8244 363.511L68.5078 270.882C69.7215 271.003 70.8722 271.488 71.8137 272.274C72.7552 273.06 73.4448 274.113 73.7949 275.298L98.428 358.508C98.6746 359.339 98.7483 360.213 98.6444 361.074C98.5405 361.935 98.2613 362.765 97.8244 363.511V363.511Z" fill="black"/>
<path d="M257.928 226.129C266.55 226.129 273.539 219.14 273.539 210.518C273.539 201.896 266.55 194.906 257.928 194.906C249.306 194.906 242.316 201.896 242.316 210.518C242.316 219.14 249.306 226.129 257.928 226.129Z" fill="#945B79"/>
<path d="M241.425 208.438C241.424 204.46 243.024 200.631 245.898 197.735C248.772 194.839 252.703 193.093 256.887 192.856C256.563 192.856 256.239 192.827 255.911 192.827C253.729 192.793 251.561 193.172 249.534 193.941C247.508 194.71 245.663 195.855 244.107 197.308C242.551 198.761 241.316 200.493 240.472 202.403C239.629 204.314 239.194 206.365 239.194 208.436C239.194 210.508 239.629 212.559 240.472 214.469C241.316 216.38 242.551 218.112 244.107 219.565C245.663 221.018 247.508 222.162 249.534 222.932C251.561 223.701 253.729 224.08 255.911 224.046C256.239 224.046 256.563 224.046 256.887 224.017C252.704 223.779 248.773 222.035 245.9 219.139C243.026 216.244 241.425 212.416 241.425 208.438V208.438Z" fill="#945B79"/>
<path opacity="0.1" d="M243.955 210.516C243.956 206.536 245.51 202.707 248.301 199.811C251.092 196.915 254.907 195.171 258.969 194.936C258.654 194.936 258.336 194.906 258.017 194.906C253.829 194.973 249.837 196.647 246.9 199.568C243.962 202.488 242.316 206.421 242.316 210.518C242.316 214.615 243.962 218.548 246.9 221.468C249.837 224.388 253.829 226.063 258.017 226.129C258.336 226.129 258.654 226.129 258.969 226.096C254.907 225.862 251.091 224.118 248.3 221.222C245.509 218.326 243.955 214.496 243.955 210.516V210.516Z" fill="black"/>
<path d="M176.748 387.814C175.262 388.607 173.732 389.312 172.165 389.925C168.074 391.552 161.839 393.419 156.032 392.704C146.27 391.505 140.429 394.734 140.429 394.734L138.239 378.311C138.239 378.311 145.439 376.17 148.366 375.635C150.56 375.207 158.476 371.52 162.275 369.708C163.546 369.109 164.338 368.715 164.338 368.715H171.64L176.748 387.814Z" fill="#FFC1C7"/>
<path opacity="0.1" d="M176.748 387.458C175.253 388.237 173.712 388.928 172.135 389.53C171.636 375.178 166.05 370.917 162.178 369.69C163.457 369.101 164.254 368.715 164.254 368.715H171.606L176.748 387.458Z" fill="black"/>
<path d="M202.767 338.852V374.164L200.888 376.409L194.869 383.597C194.869 383.597 193.524 387.381 191.279 389.029C189.033 390.676 183.914 388.486 183.914 388.486L182.477 390.84C182.477 390.84 179.249 391.475 177.724 390.84C176.2 390.206 172.426 392.652 172.426 392.652C172.967 366.749 159.055 368.834 159.055 368.834C168.656 358.417 174.579 361.767 174.579 361.767L178.711 357.782L183.827 352.552C182.66 348.504 186.876 347.638 187.863 347.184C188.85 346.73 191.454 342.383 191.366 341.841C191.279 341.299 192.17 337.763 193.607 337.902C194.407 337.978 195.502 336.561 196.327 335.287C196.985 334.262 197.468 333.328 197.468 333.328L202.767 338.852Z" fill="#586EC6"/>
<path d="M215.257 303.582L226.211 297.942L225.59 304.55L227.746 311.187C227.746 311.187 225.767 316.328 225.521 316.888C225.275 317.448 220.566 329.165 220.566 329.165L216.788 324.367L215.257 303.582Z" fill="#FF6584"/>
<path opacity="0.1" d="M216.861 323.962L215.257 303.492L226.705 297.942" fill="black"/>
<path d="M261.051 297.726C261.051 297.726 257.527 302.831 252.7 309.337C241.469 324.477 223.198 347.186 225.978 330.709C226.07 330.171 226.141 329.632 226.204 329.09C225.519 329.552 223.949 329.149 222.237 328.329L222.12 328.274C221.276 327.857 220.461 327.382 219.682 326.853C219.594 326.798 219.511 326.739 219.427 326.68C217.528 325.347 216.008 323.787 216.087 322.71C217.436 299.059 222.901 310.338 224.438 312.962C224.524 313.146 224.643 313.312 224.788 313.454C224.722 313.269 224.646 313.076 224.563 312.874C223.486 310.212 221.427 306.233 219.077 301.982V301.94L218.763 301.376C216.809 297.865 214.693 294.193 212.789 290.972L212.275 290.106C209.269 285.026 206.931 281.236 206.931 281.236C206.931 281.236 220.588 268.654 232.099 261.008C241.702 254.62 249.836 251.672 247.235 262.388C245.564 269.276 246.053 275.168 247.594 280.051C247.648 280.231 247.706 280.412 247.769 280.589C248.078 281.519 248.435 282.433 248.838 283.327C249.384 284.558 250.009 285.752 250.708 286.901C253.328 291.228 256.859 294.923 261.051 297.726V297.726Z" fill="#FFC1C7"/>
<path opacity="0.15" d="M240.518 279.015C233.91 286.022 232.504 292.739 221.975 292.739C218.912 292.741 215.861 292.363 212.896 291.616C209.577 286.168 206.931 281.988 206.931 281.988C206.931 281.988 253.893 240.074 248.06 263.349C246.279 270.382 238.81 274.066 240.518 279.015Z" fill="black"/>
<path d="M257.928 255.792C257.928 262.893 255.822 269.836 251.876 275.74C247.931 281.645 242.323 286.247 235.761 288.965C229.2 291.683 221.98 292.393 215.015 291.008C208.05 289.622 201.652 286.202 196.63 281.18C191.609 276.158 188.19 269.759 186.805 262.794C185.42 255.828 186.131 248.609 188.85 242.048C191.568 235.487 196.171 229.879 202.076 225.934C207.981 221.99 214.924 219.884 222.026 219.885C226.747 219.865 231.425 220.779 235.79 222.576C240.156 224.374 244.122 227.018 247.46 230.356C250.798 233.694 253.442 237.661 255.238 242.027C257.035 246.392 257.949 251.071 257.928 255.792V255.792Z" fill="#FFC1C7"/>
<path opacity="0.1" d="M220.678 317.717C220.678 317.717 221.301 327.803 227.61 326.992C233.92 326.181 229.12 348.426 229.12 348.426L222.109 354.909L214.545 357.266C214.545 357.266 207.881 355.285 207.972 354.921C208.062 354.558 210.636 333.492 210.636 333.492L214.545 322.231L220.678 317.717Z" fill="black"/>
<path d="M220.674 318.758C220.674 318.758 221.297 328.847 227.609 328.04C233.921 327.233 229.119 349.481 229.119 349.481L222.106 355.965L214.548 358.307C214.548 358.307 207.881 356.325 207.972 355.965C208.062 355.606 210.637 334.525 210.637 334.525L214.548 323.265L220.674 318.758Z" fill="#514E7F"/>
<path opacity="0.1" d="M202.767 338.941V374.763L200.938 377.041C199.053 371.778 197.617 364.644 198.505 358.23C199.661 349.726 197.358 338.843 196.522 335.316C197.163 334.275 197.634 333.328 197.634 333.328L202.767 338.941Z" fill="black"/>
<path opacity="0.1" d="M221.856 319.684C221.628 321.677 221.117 323.626 220.337 325.471C220.104 326.031 219.866 326.574 219.629 327.084C217.736 325.749 216.221 324.186 216.3 323.108C217.644 299.421 223.092 310.717 224.623 313.345C223.874 313.918 222.201 315.603 221.856 319.684Z" fill="black"/>
<path opacity="0.1" d="M224.43 313.554C223.459 310.816 221.553 306.657 219.42 302.262L219.69 302.105L224.624 313.414C224.555 313.452 224.49 313.499 224.43 313.554V313.554Z" fill="black"/>
<path opacity="0.1" d="M261.05 298.201C261.05 298.201 222.43 354.048 226.358 330.779C226.449 330.247 226.519 329.716 226.581 329.18C225.887 329.645 224.281 329.221 222.542 328.374C222.806 326.82 222.955 325.757 222.955 325.757L227.23 313.595C227.23 313.595 229.708 303.929 229.365 301.965L229.48 301.886L250.734 287.535H250.754C253.368 291.806 256.883 295.448 261.05 298.201V298.201Z" fill="black"/>
<path d="M302.534 340.885L299.443 356.786L290.164 423.875H209.663C209.663 423.875 211.114 412.125 211.114 410.312C211.114 408.499 209.482 405.793 209.663 403.803C209.845 401.814 210.541 403.258 209.663 399.825C208.786 396.392 208.398 386.984 205.5 383.732C202.603 380.479 197.854 368.536 199.3 358.427C200.747 348.317 196.934 334.738 196.934 334.738C196.934 334.738 193.665 330.033 196.934 329.853C200.203 329.672 201.481 330.016 201.3 326.773C201.118 323.529 202.751 317.377 204.75 316.109C206.749 314.842 209.659 310.142 210.203 308.333C210.385 307.878 210.674 307.474 211.047 307.154C212.683 305.593 216.011 303.994 216.011 303.994L219.191 302.412V302.454L224.961 313.902C224.961 313.902 222.262 315.207 221.811 320.448C221.581 322.435 221.062 324.377 220.271 326.214C220.119 326.575 219.967 326.932 219.811 327.272C219.347 328.296 218.875 329.202 218.474 329.924C217.88 330.994 217.454 331.653 217.454 331.653C217.454 331.653 217.298 332.878 217.061 334.591C216.576 338.107 215.758 343.68 215.273 345.015C214.851 346.198 214.008 348.233 213.54 350.051C213.244 351.188 213.076 352.241 213.232 352.929C213.232 352.984 213.257 353.038 213.274 353.089C213.818 354.767 216.543 347.549 216.543 347.549C216.543 347.549 218.542 341.402 219.453 341.402C220.149 341.402 221.714 332.723 222.405 328.72C222.608 327.524 222.73 326.747 222.73 326.747L227.095 314.456C227.095 314.456 227.699 312.135 228.276 309.525C228.884 306.78 229.462 303.721 229.276 302.701L229.394 302.622L251.099 288.123H251.12L251.453 287.9H251.419C251.267 287.9 250.829 287.632 249.989 285.668C249.774 285.169 249.534 284.564 249.268 283.817C249.268 283.817 256.211 281.043 258.686 283.074C258.847 283.202 258.989 283.352 259.108 283.519C259.178 283.612 259.239 283.712 259.29 283.817C260.926 287.174 261.652 289.692 263.288 291.866C263.465 292.097 263.657 292.317 263.862 292.525C265.84 294.585 269.766 296.998 269.104 297.653C268.379 298.375 274.558 301.43 274.558 301.43C274.558 301.43 278.172 303.486 279.307 305.207C279.506 305.473 279.623 305.791 279.644 306.122C279.644 307.93 284.917 309.013 286.553 309.013C288.19 309.013 296.005 325.833 299.818 327.822C303.631 329.811 302.534 340.885 302.534 340.885Z" fill="#586EC6"/>
<g opacity="0.1">
<path opacity="0.1" d="M221.03 313.699C221.03 313.699 218.345 315.004 217.896 320.246C217.668 322.232 217.151 324.175 216.36 326.012C215.836 327.28 215.24 328.519 214.577 329.721V329.721C213.986 330.791 213.562 331.45 213.562 331.45C213.562 331.45 213.407 332.675 213.172 334.387C212.702 337.933 211.863 343.506 211.389 344.832C210.969 346.016 210.13 348.051 209.664 349.868C209.37 351.005 209.203 352.058 209.358 352.747C209.358 352.801 209.383 352.856 209.4 352.906C209.941 354.585 212.651 347.367 212.651 347.367C212.651 347.367 214.64 341.219 215.546 341.219C215.802 341.219 216.18 340.019 216.587 338.307C216.793 336.935 217.007 335.562 217.145 334.413C217.38 332.692 217.535 331.475 217.535 331.475C217.535 331.475 217.774 331.106 218.144 330.468C218.53 328.257 218.798 326.586 218.798 326.586L223.141 314.295C223.141 314.295 223.455 313.07 223.85 311.404L219.234 302.226L216.071 303.808L221.03 313.699Z" fill="black"/>
<path opacity="0.1" d="M299.435 327.661C295.659 325.672 287.868 308.853 286.24 308.853C284.612 308.853 279.367 307.77 279.367 305.961C279.367 304.153 274.307 301.257 274.307 301.257C274.307 301.257 268.161 298.185 268.882 297.48C269.533 296.826 265.635 294.413 263.667 292.352C263.464 292.144 263.274 291.924 263.097 291.694C261.469 289.52 260.747 286.989 259.119 283.645C259.068 283.539 259.008 283.438 258.939 283.343C258.818 283.177 258.677 283.028 258.519 282.898C257.411 281.987 255.414 282.059 253.543 282.386C253.905 282.492 254.244 282.666 254.542 282.898C254.699 283.028 254.84 283.177 254.961 283.343C255.03 283.438 255.09 283.539 255.142 283.645C256.769 287.002 257.491 289.52 259.119 291.694C259.298 291.918 259.49 292.133 259.694 292.336C261.662 294.396 265.568 296.809 264.909 297.464C264.187 298.185 270.334 301.24 270.334 301.24C270.334 301.24 275.394 304.136 275.394 305.944C275.394 307.753 280.639 308.836 282.267 308.836C283.894 308.836 291.669 325.655 295.462 327.644C299.255 329.633 298.177 340.653 298.177 340.653L295.097 356.582L285.866 423.67H289.844L299.074 356.582L302.15 340.669C302.15 340.669 303.232 329.65 299.435 327.661Z" fill="black"/>
</g>
<path d="M141.469 378.154C141.469 378.154 118.195 371.423 116.547 381.758C114.9 392.093 126.064 398.035 133.197 397.852C140.331 397.67 143.444 390.9 143.444 390.9L141.469 378.154Z" fill="#FFC1C7"/>
<path d="M256.427 409.756C256.427 409.756 251.279 413.519 240.352 413.519C229.425 413.519 216.691 415.906 216.691 415.906C216.691 415.906 200.437 376.975 167.835 410.302C167.835 410.302 161.967 418.015 192.398 418.825C192.398 418.825 203.144 418.459 205.492 423.875H266.268L274.58 417.547L256.427 409.756Z" fill="#FFC1C7"/>
<path d="M134.076 362.003C134.076 362.003 132.604 358.371 130.858 362.003L129.913 390.18L131.989 396.815L134.064 390.91L134.076 362.003Z" fill="#514E7F"/>
<path opacity="0.1" d="M258.968 283.441C255.945 284.445 252.629 286.798 251.652 287.535C251.471 287.535 250.848 287.143 249.602 283.719C249.598 283.719 257.079 280.79 258.968 283.441Z" fill="black"/>
<path d="M224.624 313.576C224.624 313.576 221.91 314.878 221.457 320.109C221.226 322.091 220.704 324.029 219.909 325.863L218.124 329.569L216.704 334.234L216.852 343.732L213.138 349.67L212.828 352.543L211.866 361.429L206.931 359.084C206.931 359.084 208.966 344.754 210.492 341.851C212.019 338.949 214.058 323.58 214.058 323.58C214.058 323.58 213.965 317.939 214.698 316.947C215.432 315.954 213.426 316.134 213.235 314.062C213.125 312.83 211.734 309.413 210.619 306.838C212.264 305.28 215.61 303.684 215.61 303.684L218.807 302.105L224.624 313.576Z" fill="#586EC6"/>
<path opacity="0.1" d="M225.664 313.576C225.664 313.576 222.95 314.878 222.497 320.109C222.266 322.091 221.744 324.029 220.949 325.863L219.164 329.569L217.744 334.234L217.892 343.732L214.178 349.67L213.868 352.543L212.906 361.429L207.971 359.084C207.971 359.084 210.006 344.754 211.532 341.851C213.059 338.949 215.098 323.58 215.098 323.58C215.098 323.58 215.005 317.939 215.738 316.947C216.472 315.954 214.466 316.134 214.275 314.062C214.165 312.83 212.774 309.413 211.659 306.838C213.304 305.28 216.65 303.684 216.65 303.684L219.847 302.105L225.664 313.576Z" fill="black"/>
<path opacity="0.1" d="M264.172 292.766C260.008 296.048 248.811 305.36 247.524 311.69C245.938 319.494 241.175 318.738 241.175 318.738C235.225 306.303 231.13 303.255 228.786 302.825L251.086 288.395C251.086 288.395 251.086 288.395 251.107 288.395L251.45 288.173H251.402C251.246 288.173 250.795 287.91 249.933 285.956L258.868 283.372C259.033 283.499 259.179 283.648 259.302 283.814C259.373 283.908 259.435 284.007 259.488 284.111C261.169 287.451 261.915 289.956 263.596 292.119C263.775 292.345 263.968 292.561 264.172 292.766V292.766Z" fill="black"/>
<path d="M264.172 291.72C260.131 295.002 249.263 304.32 248.013 310.651C246.474 318.453 241.852 317.697 241.852 317.697C236.077 305.264 232.103 302.202 229.827 301.785L251.471 287.355H251.492L251.824 287.134H251.778C251.626 287.134 251.189 286.867 250.352 284.912L259.024 282.331C259.185 282.458 259.326 282.607 259.445 282.774C259.515 282.866 259.576 282.966 259.626 283.07C261.258 286.411 261.981 288.917 263.613 291.081C263.786 291.305 263.973 291.518 264.172 291.72V291.72Z" fill="#586EC6"/>
<path opacity="0.1" d="M239.194 355.779C239.455 355.681 253.13 346.8 251.558 353.555C249.986 360.31 239.194 355.779 239.194 355.779Z" fill="black"/>
<path opacity="0.1" d="M177.789 363.511C177.789 363.511 185.954 374.247 188.843 373.911C191.733 373.575 177.789 363.511 177.789 363.511Z" fill="black"/>
<path opacity="0.1" d="M187.155 359.348C187.155 359.348 187.593 368.074 191.351 368.687C195.108 369.301 187.155 359.348 187.155 359.348Z" fill="black"/>
<path opacity="0.1" d="M228.786 387.448C228.786 387.448 237.558 402.913 235.851 408.264L228.786 387.448Z" fill="black"/>
<path opacity="0.1" d="M239.194 389.53C239.194 389.53 252.711 405.806 250.37 407.154C248.03 408.502 239.194 389.53 239.194 389.53Z" fill="black"/>
<path opacity="0.1" d="M211.269 363.511C211.269 363.511 209.821 374.8 215.257 378.081L211.269 363.511Z" fill="black"/>
<path opacity="0.1" d="M267.552 311.681C267.552 311.681 246.611 328.239 249.966 345.431C253.321 362.624 256.56 363.888 256.56 363.888C256.56 363.888 257.797 370.762 260.113 373.659C262.429 376.557 262.066 378.455 262.066 378.455C262.066 378.455 264.197 377.46 264.906 382.436C265.615 387.412 269.345 390.94 269.345 390.94C269.345 390.94 270.582 394.921 267.391 397.092C264.201 399.263 264.919 401.619 264.919 401.619L251.952 409.308L266.394 423.875H303.694C303.694 423.875 302.627 421.977 304.931 419.256C307.235 416.535 306.089 405.776 306.089 405.776C306.089 405.776 304.799 404.054 306.377 400.254C307.956 396.454 305.021 385.598 305.021 385.598L301.724 375.012C301.724 375.012 298.971 367.503 299.416 363.476C299.861 359.449 298.509 355.048 298.509 355.048L291.35 332.036C291.35 332.036 291.705 309.057 267.552 311.681Z" fill="black"/>
<path d="M267.876 311.681C267.876 311.681 246.54 328.239 249.976 345.431C253.413 362.624 256.664 363.888 256.664 363.888C256.664 363.888 257.923 370.762 260.281 373.659C262.639 376.557 262.27 378.455 262.27 378.455C262.27 378.455 264.439 377.46 265.165 382.436C265.891 387.412 269.684 390.94 269.684 390.94C269.684 390.94 270.943 394.921 267.695 397.092C264.448 399.263 265.178 401.619 265.178 401.619L251.978 409.308L266.714 423.875H304.682C304.682 423.875 303.6 421.977 305.941 419.256C308.282 416.535 307.116 405.776 307.116 405.776C307.116 405.776 305.803 404.054 307.41 400.254C309.017 396.454 306.029 385.598 306.029 385.598L302.673 375.012C302.673 375.012 299.87 367.503 300.323 363.476C300.776 359.449 299.391 355.048 299.391 355.048L292.103 332.036C292.103 332.036 292.464 309.057 267.876 311.681Z" fill="#586EC6"/>
<path opacity="0.1" d="M274.58 323.215C274.58 323.215 290.255 328.371 294.451 330.907C298.647 333.443 288.294 320.864 274.58 323.215Z" fill="black"/>
<path opacity="0.1" d="M282.906 402.019C282.906 402.019 304.952 404.512 303.668 408.42C302.383 412.328 282.906 402.019 282.906 402.019Z" fill="black"/>
<path opacity="0.1" d="M278.743 406.182C278.743 406.182 294.775 411.435 291.936 415.757C289.098 420.078 278.743 406.182 278.743 406.182Z" fill="black"/>
<path opacity="0.1" d="M278.743 304.97C270.131 306.658 261.476 308.101 252.818 309.539L250.563 309.915C245.802 310.704 241.012 311.497 236.184 311.472C233.833 311.472 231.411 311.227 229.324 310.13C228.878 309.892 228.457 309.609 228.067 309.286C226.604 308.105 225.552 306.388 225.577 304.523C225.602 301.122 228.808 298.764 231.566 296.798C235.602 293.916 239.587 290.258 241.146 285.663C241.443 284.802 241.647 283.911 241.754 283.005C242.215 279.102 240.803 275.25 239.298 271.613C237.655 267.669 235.401 263.428 232.107 261.032C230.774 260.045 229.216 259.411 227.576 259.188C222.514 258.513 217.724 262.141 212.623 261.939C208.478 261.757 204.958 259.078 202.465 255.927C200.65 253.631 199.502 250.56 196.769 249.197C193.81 247.716 190.445 247.366 187.155 246.872C188.493 241.579 191.015 236.665 194.529 232.504C198.043 228.343 202.456 225.046 207.429 222.865C212.403 220.684 217.806 219.677 223.226 219.921C228.645 220.164 233.937 221.653 238.698 224.271C243.459 226.89 247.561 230.57 250.693 235.03C253.824 239.49 255.901 244.612 256.764 250.004C257.628 255.396 257.255 260.915 255.675 266.14C254.094 271.365 251.348 276.156 247.646 280.149C247.701 280.33 247.76 280.512 247.822 280.689C248.133 281.622 248.491 282.539 248.895 283.436C248.895 283.436 255.794 280.647 258.254 282.689C258.413 282.817 258.554 282.968 258.673 283.136C258.742 283.23 258.803 283.33 258.853 283.436C260.479 286.811 261.2 289.342 262.826 291.528C263.002 291.76 263.192 291.982 263.396 292.19C265.361 294.262 269.263 296.688 268.605 297.346C267.884 298.072 274.024 301.143 274.024 301.143C274.024 301.143 277.615 303.232 278.743 304.97Z" fill="black"/>
<path d="M177.195 241.333C173.982 237.215 174.33 231.396 175.517 226.328C176.264 223.131 177.325 219.917 179.405 217.37C181.485 214.824 184.761 213.04 188.037 213.482C189.953 213.74 191.685 214.711 193.489 215.42C201.584 218.604 211.624 215.957 217.068 209.201C218.302 207.671 219.321 205.954 220.78 204.616C222.415 203.215 224.371 202.235 226.476 201.761C235.586 199.477 244.981 203.974 252.773 209.188C259.425 213.64 265.75 218.837 270.116 225.519C274.084 231.624 276.262 238.706 276.407 245.972C276.63 257.476 271.748 269.079 274.541 280.242C277.296 291.266 288.13 299.752 299.559 299.831C283.865 303.658 267.902 306.279 251.96 308.893C247.191 309.676 242.401 310.46 237.569 310.431C235.217 310.431 232.788 310.189 230.704 309.105C228.619 308.022 226.929 305.917 226.929 303.579C226.954 300.215 230.167 297.889 232.922 295.947C237.712 292.571 242.431 288.115 243.123 282.321C243.584 278.466 242.17 274.656 240.661 271.068C238.358 265.607 234.847 259.56 228.942 258.776C223.88 258.105 219.082 261.694 213.977 261.489C209.834 261.31 206.306 258.663 203.811 255.55C201.995 253.282 200.845 250.248 198.115 248.902C191.367 245.584 182.462 248.081 177.195 241.333Z" fill="#945B79"/>
<path d="M269.019 219.436C272.178 217.117 274.38 213.61 275.176 209.631C275.972 205.652 275.301 201.502 273.301 198.029C273.486 198.275 273.663 198.53 273.835 198.789C275.001 200.509 275.832 202.458 276.279 204.521C276.727 206.584 276.782 208.72 276.441 210.806C276.1 212.891 275.371 214.884 274.295 216.669C273.219 218.453 271.819 219.994 270.175 221.2C268.531 222.407 266.677 223.256 264.72 223.697C262.763 224.138 260.742 224.164 258.776 223.771C256.81 223.379 254.937 222.577 253.267 221.411C251.596 220.246 250.162 218.741 249.047 216.984C248.878 216.72 248.713 216.453 248.561 216.185C250.936 219.383 254.377 221.501 258.18 222.105C261.983 222.709 265.86 221.754 269.019 219.436Z" fill="#945B79"/>
<g opacity="0.1">
<path opacity="0.1" d="M219.517 206.968C220.751 205.424 221.77 203.695 223.23 202.352C223.47 202.134 223.721 201.928 223.981 201.736C222.78 202.234 221.671 202.93 220.7 203.796C219.24 205.13 218.221 206.859 216.987 208.412C215.735 209.965 214.25 211.315 212.586 212.415C215.274 211.14 217.643 209.279 219.517 206.968V206.968Z" fill="black"/>
<path opacity="0.1" d="M254.437 307.363C249.671 308.147 244.875 308.936 240.042 308.907C237.688 308.907 235.263 308.668 233.174 307.577C231.084 306.485 229.397 304.366 229.418 302.008C229.444 298.626 232.653 296.284 235.414 294.324C240.206 290.925 244.921 286.439 245.614 280.606C246.075 276.729 244.661 272.889 243.151 269.276C240.847 263.779 237.34 257.686 231.428 256.901C226.364 256.226 221.568 259.839 216.462 259.629C212.317 259.453 208.788 256.788 206.292 253.653C204.471 251.37 203.321 248.315 200.59 246.96C193.81 243.603 184.902 246.121 179.612 239.314C176.398 235.168 176.75 229.306 177.933 224.207C178.68 220.989 179.742 217.753 181.818 215.185C182.401 214.47 183.066 213.827 183.799 213.267C182.036 213.987 180.484 215.142 179.288 216.624C177.191 219.188 176.146 222.428 175.399 225.642C174.212 230.754 173.863 236.616 177.077 240.749C182.347 247.543 191.255 245.03 198.056 248.395C200.787 249.755 201.937 252.81 203.753 255.109C206.271 258.24 209.778 260.909 213.924 261.085C219.03 261.303 223.83 257.677 228.894 258.353C234.801 259.142 238.313 265.231 240.617 270.732C242.127 274.333 243.554 278.168 243.08 282.063C242.387 287.896 237.667 292.381 232.876 295.781C230.119 297.736 226.905 300.082 226.88 303.464C226.88 305.818 228.558 307.942 230.656 309.033C232.754 310.124 235.171 310.35 237.524 310.363C242.358 310.392 247.175 309.603 251.92 308.814C267.863 306.183 283.836 303.548 299.537 299.692C298.608 299.682 297.68 299.618 296.759 299.499C282.771 302.684 268.593 305.025 254.437 307.363Z" fill="black"/>
</g>
<path d="M135.638 387.448C139.374 387.448 142.403 385.585 142.403 383.285C142.403 380.986 139.374 379.122 135.638 379.122C131.902 379.122 128.873 380.986 128.873 383.285C128.873 385.585 131.902 387.448 135.638 387.448Z" fill="#FFC1C7"/>
<path opacity="0.3" d="M72.2682 258.777C83.1238 260.416 95.4264 261.771 103.822 255.976C110.196 251.578 112.509 244.227 115.325 237.565C120.41 225.537 128.274 214.345 139.136 205.746C149.999 197.148 165.558 187.169 180.443 185.983C192.407 185.025 219.751 181.078 231.744 180.378C243.736 179.679 256.53 175.268 261.05 165.765" stroke="black" stroke-width="0.75" stroke-miterlimit="10" stroke-dasharray="12 12"/>
<path opacity="0.5" d="M317.074 104.371L269.972 121.79C269.813 121.852 269.673 121.956 269.569 122.093C269.465 122.229 269.4 122.393 269.382 122.564C269.363 122.736 269.391 122.909 269.464 123.065C269.536 123.222 269.65 123.354 269.792 123.449L276.823 127.406C277.224 127.644 277.517 128.031 277.641 128.484L281.671 141.424C281.671 141.972 282.653 142.254 282.743 141.723L283.307 131.603C283.469 130.872 283.848 130.209 284.394 129.704L310.279 110.626C310.354 110.575 310.44 110.542 310.529 110.531C310.619 110.519 310.709 110.529 310.794 110.559C310.876 110.592 310.948 110.646 311.004 110.715C311.059 110.784 311.097 110.866 311.114 110.953C311.13 111.041 311.124 111.131 311.097 111.216C311.07 111.301 311.022 111.377 310.958 111.438L287.942 132.731C287.446 133.26 287.083 133.903 286.888 134.606L284.435 143.059C284.435 143.822 284.958 144.195 285.531 143.589L290.436 139.218C290.519 139.133 290.618 139.065 290.726 139.019C290.835 138.973 290.952 138.95 291.07 138.95C291.188 138.95 291.304 138.973 291.413 139.019C291.522 139.065 291.621 139.133 291.703 139.218L301.367 148.84C301.473 148.947 301.604 149.024 301.747 149.066C301.891 149.107 302.042 149.111 302.188 149.077C302.333 149.043 302.467 148.972 302.578 148.871C302.689 148.771 302.774 148.643 302.823 148.5L318.12 105.599C318.184 105.437 318.2 105.26 318.167 105.089C318.134 104.919 318.053 104.761 317.934 104.636C317.814 104.511 317.662 104.423 317.495 104.383C317.328 104.344 317.153 104.354 316.992 104.413L317.074 104.371Z" fill="#15D1C0"/>
<path d="M574.154 211.182H332.149C332.059 211.209 331.976 211.325 331.916 211.509C331.856 211.692 331.822 211.929 331.822 212.175C331.822 212.421 331.856 212.658 331.916 212.841C331.976 213.024 332.059 213.141 332.149 213.167H574.154C574.244 213.141 574.327 213.024 574.387 212.841C574.447 212.658 574.481 212.421 574.481 212.175C574.481 211.929 574.447 211.692 574.387 211.509C574.327 211.325 574.244 211.209 574.154 211.182V211.182Z" fill="#CACACA"/>
<path d="M395.543 201.006L393.505 211.086L431.414 223.747L434.423 208.869L395.543 201.006Z" fill="#FFB6B6"/>
<path d="M399.355 199.1L395.339 218.951L395.339 218.952C394.66 222.307 392.677 225.255 389.824 227.147C386.972 229.04 383.485 229.722 380.13 229.043L379.719 228.96L386.293 196.458L399.355 199.1Z" fill="#2F2E41"/>
<path d="M438.503 62.1607C452.719 62.1607 464.243 50.6365 464.243 36.4206C464.243 22.2047 452.719 10.6804 438.503 10.6804C424.287 10.6804 412.763 22.2047 412.763 36.4206C412.763 50.6365 424.287 62.1607 438.503 62.1607Z" fill="#FEB8B8"/>
<path d="M462.544 14.2141C458.695 7.96497 452.671 3.3602 445.632 1.28623L442.472 3.59222V0.597945C440.781 0.339178 439.07 0.239492 437.36 0.300202L434.634 2.76699V0.505151C430.597 1.00676 426.709 2.33928 423.213 4.4187C419.717 6.49813 416.69 9.27933 414.322 12.587C408.402 21.1222 407.402 32.9966 413.225 41.6003C414.824 36.6876 416.764 32.078 418.363 27.1658C419.619 27.3371 420.893 27.3433 422.151 27.1842L424.095 22.6461L424.639 26.9922C430.667 26.4671 439.608 25.3139 445.323 24.2574L444.767 20.9232L448.092 23.6937C449.843 23.2907 450.882 22.925 450.796 22.6456C455.047 29.4976 460.248 33.8739 464.498 40.7259C466.112 31.0643 467.97 23.0307 462.544 14.2141Z" fill="#2F2E41"/>
<path d="M446.878 204.859C483.481 204.859 513.155 196.559 513.155 186.32C513.155 176.081 483.481 167.781 446.878 167.781C410.274 167.781 380.601 176.081 380.601 186.32C380.601 196.559 410.274 204.859 446.878 204.859Z" fill="#2F2E41"/>
<path d="M493.863 102.612C492.978 97.2872 492.065 91.8599 489.59 87.0628C487.963 83.9207 485.381 80.9264 481.901 80.3051C481.215 80.244 480.541 80.088 479.899 79.8416C478.879 79.3504 465.174 71.5267 462.995 70.1641C461.125 68.9943 458.173 66.8283 456.684 66.8283C455.186 66.7954 449.443 68.1319 427.029 66.3798C423.259 67.8932 419.607 69.6883 416.107 71.7499C416.034 71.7023 392.842 84.1564 391.971 84.1236C390.321 84.0542 388.787 85.1106 387.841 86.4411C386.895 87.7715 386.452 89.4185 385.987 91.0109C391.053 102.292 395.688 113.587 400.754 124.868C400.991 125.293 401.117 125.771 401.12 126.257C401.018 126.762 400.803 127.238 400.49 127.647C398.005 131.638 398.084 136.657 398.356 141.347C398.627 146.038 398.963 150.992 396.867 155.196C396.297 156.351 395.556 157.407 395.013 158.561C393.743 161.175 393.284 169.536 394.026 172.345L486.954 175.007C484.956 169.515 493.863 102.612 493.863 102.612Z" fill="#586EC6"/>
<path d="M377.953 125.368C377.768 126.709 377.749 128.069 377.898 129.414L379.23 148.542C379.355 150.345 379.478 152.143 379.647 153.942C379.967 157.432 380.444 160.894 381.036 164.351C381.05 164.842 381.257 165.308 381.614 165.646C381.97 165.984 382.446 166.167 382.937 166.154C388.8 167.395 394.857 167.345 400.841 167.007C409.971 166.498 433.331 165.533 434.758 163.679C436.185 161.825 435.354 158.827 433.493 157.328C431.632 155.828 400.805 152.174 400.805 152.174C401.107 149.787 402.015 147.539 402.877 145.273C404.426 141.253 405.872 137.102 405.899 132.796C405.927 128.49 404.305 123.963 400.778 121.496C397.876 119.471 394.141 119.095 390.605 119.179C388.032 119.253 383.588 118.636 381.238 119.642C379.379 120.461 378.301 123.547 377.953 125.368Z" fill="#FBBEBE"/>
<path d="M494.027 168.607C495.57 168.018 497.272 168.231 498.926 168.454C504.252 169.181 509.656 169.928 514.592 172.055C516.909 173.047 519.115 174.372 520.682 176.323C522.071 178.079 522.883 180.23 523.653 182.348L525.433 187.224C526.19 189.056 526.711 190.976 526.986 192.939C527.542 198.774 523.551 204.275 518.532 207.306C513.512 210.338 507.603 211.417 501.846 212.548C496.089 213.679 490.31 214.93 484.577 216.256C481.903 216.95 479.19 217.484 476.453 217.855C470.316 218.55 463.902 217.526 458.071 219.556C455.754 220.367 453.478 221.572 451.074 222.133C449.476 222.469 447.861 222.715 446.235 222.87L435.2 224.13C432.956 224.43 430.697 224.604 428.433 224.649C423.613 224.649 418.872 223.508 414.191 222.367C413.694 222.279 413.221 222.088 412.802 221.806C412.061 221.222 411.898 220.188 411.792 219.252C411.319 215.109 410.905 210.961 410.551 206.808C410.44 205.46 410.357 204 411.093 202.864C412.02 201.475 413.828 201.038 415.478 200.769C422.475 199.624 429.562 199.133 436.65 199.3C439.343 196.607 443.783 196.593 447.31 195.128C448.608 194.532 449.864 193.85 451.069 193.084C457.378 189.403 464.429 187.176 471.708 186.563C473.133 186.52 474.549 186.318 475.93 185.961C478.659 185.113 481.149 182.804 483.953 183.37C484.3 182.411 484.541 181.127 485.342 180.469C485.739 180.13 486.232 179.903 486.598 179.542C487.372 178.759 487.442 177.525 487.325 176.432C487.209 175.338 486.95 174.217 487.233 173.15C487.35 172.747 487.524 172.361 487.747 172.005C489.133 169.608 491.232 168.375 494.027 168.607Z" fill="#2F2E41"/>
<path d="M385.718 91.3543C385.267 91.827 384.917 92.3869 384.69 92.9998C380.943 101.443 378.73 110.486 378.155 119.705C378.165 120.155 378.061 120.6 377.854 120.998C377.649 121.264 377.421 121.51 377.172 121.735C376.956 121.992 376.792 122.289 376.69 122.609C376.588 122.929 376.55 123.267 376.579 123.601C376.607 123.936 376.701 124.262 376.855 124.56C377.01 124.859 377.221 125.124 377.478 125.341C377.52 125.376 377.564 125.41 377.608 125.443C378.373 124.004 380.203 123.534 381.83 123.409C389.621 122.792 397.231 126.417 405.046 126.143C404.494 124.238 403.701 122.408 403.252 120.48C401.263 111.919 406.223 102.599 403.182 94.3535C402.575 92.7035 401.56 91.0813 399.961 90.3583C399.299 90.0913 398.606 89.9079 397.899 89.8125C395.924 89.4557 391.994 87.9308 390.085 88.5426C389.38 88.7699 389.102 89.4324 388.518 89.8328C387.631 90.3995 386.454 90.6079 385.718 91.3543Z" fill="#586EC6"/>
<path d="M493.917 119.642C491.568 118.636 487.123 119.253 484.55 119.179C481.015 119.095 477.279 119.471 474.378 121.496C470.85 123.963 469.228 128.49 469.256 132.796C469.284 137.102 470.73 141.253 472.278 145.273C473.14 147.539 474.049 149.787 474.35 152.174C474.35 152.174 443.523 155.828 441.662 157.328C439.801 158.827 438.97 161.825 440.397 163.679C441.824 165.533 486.356 167.395 492.219 166.154C492.71 166.167 493.185 165.984 493.542 165.646C493.898 165.308 494.105 164.842 494.119 164.351C494.711 160.894 495.189 157.432 495.508 153.942C495.677 152.143 495.8 150.345 495.926 148.542L497.257 129.414C497.406 128.069 497.387 126.709 497.202 125.368C496.854 123.547 495.777 120.461 493.917 119.642Z" fill="#FBBEBE"/>
<path d="M486.638 89.8328C486.054 89.4324 485.776 88.7699 485.071 88.5426C483.162 87.9308 479.232 89.4557 477.257 89.8125C476.55 89.9079 475.857 90.0913 475.195 90.3583C473.596 91.0813 472.581 92.7035 471.974 94.3535C468.933 102.599 473.893 111.919 471.904 120.48C471.455 122.408 470.662 124.238 470.11 126.143C477.925 126.417 485.535 122.792 493.326 123.409C494.953 123.534 496.783 124.004 497.548 125.443C497.592 125.41 497.636 125.376 497.678 125.341C497.935 125.124 498.146 124.859 498.301 124.56C498.455 124.262 498.549 123.936 498.578 123.601C498.606 123.267 498.568 122.929 498.466 122.609C498.364 122.289 498.2 121.992 497.984 121.735C497.735 121.51 497.507 121.264 497.302 120.998C497.095 120.6 496.991 120.155 497.001 119.705C496.426 110.486 494.213 101.443 490.466 92.9998C490.239 92.3869 489.889 91.827 489.438 91.3543C488.702 90.6079 487.525 90.3995 486.638 89.8328Z" fill="#586EC6"/>
<path d="M499.67 215.395L498.315 225.589L458.35 225.215L460.349 210.169L499.67 215.395Z" fill="#FFB6B6"/>
<path d="M509.897 214.108L505.528 246.979L505.113 246.924C501.72 246.473 498.645 244.692 496.564 241.974C494.484 239.256 493.568 235.823 494.019 232.429L494.019 232.429L496.687 212.352L509.897 214.108Z" fill="#2F2E41"/>
<path d="M405.647 173.765C405.647 174.229 404.919 173.765 404.853 173.269C404.343 169.52 401.367 166.428 397.9 164.926C394.434 163.425 390.485 163.346 386.731 163.703C381.053 164.24 374.68 166.414 372.604 171.721C372.112 172.961 367.51 184.008 367.96 186.492C369.169 193.119 373.702 198.788 379.194 202.714C384.687 206.639 391.104 208.985 397.505 211.1C414.43 216.682 431.794 220.829 449.415 223.498C452.27 223.929 455.153 224.328 457.887 225.245C460.334 226.065 462.624 227.294 465.015 228.258C470.577 230.491 476.561 231.289 482.488 232.072C483.499 232.202 484.657 232.295 485.404 231.609C486.368 230.716 486.049 229.157 485.774 227.873C484.768 222.992 485.613 217.911 488.143 213.617C489.135 211.949 490.426 210.238 490.238 208.307C490.016 206.055 487.772 204.46 485.538 204.099C483.304 203.737 481.033 204.27 478.789 204.562C478.02 204.739 477.215 204.659 476.495 204.335C476.162 204.11 475.86 203.842 475.596 203.538C474.051 202.047 472.073 201.084 469.946 200.787C467.82 200.49 465.654 200.873 463.759 201.883C462.929 202.347 461.675 201.313 460.811 200.924L451.064 196.512C439.867 191.446 428.614 186.357 416.767 183.15C415.822 182.964 414.923 182.59 414.125 182.051C413.537 181.587 413.115 180.959 412.572 180.443C411.39 179.326 409.744 178.881 408.327 178.088C406.91 177.296 405.322 175.355 405.647 173.765Z" fill="#2F2E41"/>
<path d="M430.88 167.068C434.717 167.068 437.827 163.957 437.827 160.12C437.827 156.283 434.717 153.173 430.88 153.173C427.043 153.173 423.933 156.283 423.933 160.12C423.933 163.957 427.043 167.068 430.88 167.068Z" fill="#FBBEBE"/>
<path d="M446.263 167.068C450.1 167.068 453.21 163.957 453.21 160.12C453.21 156.283 450.1 153.173 446.263 153.173C442.426 153.173 439.315 156.283 439.315 160.12C439.315 163.957 442.426 167.068 446.263 167.068Z" fill="#FBBEBE"/>
<path d="M489.145 175.775H393.7C392.586 175.774 391.518 175.331 390.73 174.543C389.942 173.755 389.498 172.687 389.497 171.572V113.668C389.498 112.554 389.942 111.486 390.73 110.698C391.518 109.91 392.586 109.467 393.7 109.465H489.145C490.26 109.467 491.328 109.91 492.116 110.698C492.904 111.486 493.347 112.554 493.349 113.668V171.572C493.347 172.687 492.904 173.755 492.116 174.543C491.328 175.331 490.26 175.774 489.145 175.775Z" fill="#3F3D56"/>
<path d="M441.293 166.128C442.828 166.128 444.074 164.883 444.074 163.347C444.074 161.812 442.828 160.567 441.293 160.567C439.757 160.567 438.512 161.812 438.512 163.347C438.512 164.883 439.757 166.128 441.293 166.128Z" fill="white"/>
<defs>
<linearGradient id="paint0_linear_244_2201" x1="150944" y1="205264" x2="150944" y2="74972.8" gradientUnits="userSpaceOnUse">
<stop stop-color="#808080" stop-opacity="0.25"/>
<stop offset="0.54" stop-color="#808080" stop-opacity="0.12"/>
<stop offset="1" stop-color="#808080" stop-opacity="0.1"/>
</linearGradient>
</defs>
</svg>
