<svg width="624" height="447" viewBox="0 0 624 447" fill="none" xmlns="http://www.w3.org/2000/svg">
<path d="M34.1229 173.066C43.9894 173.066 51.9879 165.068 51.9879 155.202C51.9879 145.335 43.9894 137.337 34.1229 137.337C24.2563 137.337 16.2578 145.335 16.2578 155.202C16.2578 165.068 24.2563 173.066 34.1229 173.066Z" fill="#6C63FF"/>
<path d="M146.972 11.9232C150.173 11.9232 152.768 9.32823 152.768 6.12714C152.768 2.92605 150.173 0.331055 146.972 0.331055C143.771 0.331055 141.176 2.92605 141.176 6.12714C141.176 9.32823 143.771 11.9232 146.972 11.9232Z" fill="#E6E6E6"/>
<path d="M176.313 11.9232C179.514 11.9232 182.109 9.32823 182.109 6.12714C182.109 2.92605 179.514 0.331055 176.313 0.331055C173.112 0.331055 170.517 2.92605 170.517 6.12714C170.517 9.32823 173.112 11.9232 176.313 11.9232Z" fill="#E6E6E6"/>
<path d="M205.653 11.9232C208.854 11.9232 211.449 9.32823 211.449 6.12714C211.449 2.92605 208.854 0.331055 205.653 0.331055C202.452 0.331055 199.856 2.92605 199.856 6.12714C199.856 9.32823 202.452 11.9232 205.653 11.9232Z" fill="#E6E6E6"/>
<path d="M234.993 11.9232C238.194 11.9232 240.789 9.32823 240.789 6.12714C240.789 2.92605 238.194 0.331055 234.993 0.331055C231.791 0.331055 229.196 2.92605 229.196 6.12714C229.196 9.32823 231.791 11.9232 234.993 11.9232Z" fill="#E6E6E6"/>
<path d="M146.972 41.6311C150.173 41.6311 152.768 39.0361 152.768 35.835C152.768 32.6339 150.173 30.0389 146.972 30.0389C143.771 30.0389 141.176 32.6339 141.176 35.835C141.176 39.0361 143.771 41.6311 146.972 41.6311Z" fill="#E6E6E6"/>
<path d="M176.313 41.6311C179.514 41.6311 182.109 39.0361 182.109 35.835C182.109 32.6339 179.514 30.0389 176.313 30.0389C173.112 30.0389 170.517 32.6339 170.517 35.835C170.517 39.0361 173.112 41.6311 176.313 41.6311Z" fill="#E6E6E6"/>
<path d="M205.653 41.6311C208.854 41.6311 211.449 39.0361 211.449 35.835C211.449 32.6339 208.854 30.0389 205.653 30.0389C202.452 30.0389 199.856 32.6339 199.856 35.835C199.856 39.0361 202.452 41.6311 205.653 41.6311Z" fill="#FE7F43"/>
<path d="M234.993 41.6311C238.194 41.6311 240.789 39.0361 240.789 35.835C240.789 32.6339 238.194 30.0389 234.993 30.0389C231.791 30.0389 229.196 32.6339 229.196 35.835C229.196 39.0361 231.791 41.6311 234.993 41.6311Z" fill="#E6E6E6"/>
<path d="M293.673 41.6311C296.874 41.6311 299.469 39.0361 299.469 35.835C299.469 32.6339 296.874 30.0389 293.673 30.0389C290.472 30.0389 287.877 32.6339 287.877 35.835C287.877 39.0361 290.472 41.6311 293.673 41.6311Z" fill="#E6E6E6"/>
<path d="M146.972 71.3391C150.173 71.3391 152.768 68.7441 152.768 65.5431C152.768 62.342 150.173 59.747 146.972 59.747C143.771 59.747 141.176 62.342 141.176 65.5431C141.176 68.7441 143.771 71.3391 146.972 71.3391Z" fill="#E6E6E6"/>
<path d="M176.313 71.3391C179.514 71.3391 182.109 68.7441 182.109 65.5431C182.109 62.342 179.514 59.747 176.313 59.747C173.112 59.747 170.517 62.342 170.517 65.5431C170.517 68.7441 173.112 71.3391 176.313 71.3391Z" fill="#E6E6E6"/>
<path d="M205.653 71.3391C208.854 71.3391 211.449 68.7441 211.449 65.5431C211.449 62.342 208.854 59.747 205.653 59.747C202.452 59.747 199.856 62.342 199.856 65.5431C199.856 68.7441 202.452 71.3391 205.653 71.3391Z" fill="#E6E6E6"/>
<path d="M234.993 71.3391C238.194 71.3391 240.789 68.7441 240.789 65.5431C240.789 62.342 238.194 59.747 234.993 59.747C231.791 59.747 229.196 62.342 229.196 65.5431C229.196 68.7441 231.791 71.3391 234.993 71.3391Z" fill="#E6E6E6"/>
<path d="M146.972 101.047C150.173 101.047 152.768 98.452 152.768 95.2509C152.768 92.0498 150.173 89.4548 146.972 89.4548C143.771 89.4548 141.176 92.0498 141.176 95.2509C141.176 98.452 143.771 101.047 146.972 101.047Z" fill="#E6E6E6"/>
<path d="M176.313 101.047C179.514 101.047 182.109 98.452 182.109 95.2509C182.109 92.0498 179.514 89.4548 176.313 89.4548C173.112 89.4548 170.517 92.0498 170.517 95.2509C170.517 98.452 173.112 101.047 176.313 101.047Z" fill="#E6E6E6"/>
<path d="M205.653 101.047C208.854 101.047 211.449 98.452 211.449 95.2509C211.449 92.0498 208.854 89.4548 205.653 89.4548C202.452 89.4548 199.856 92.0498 199.856 95.2509C199.856 98.452 202.452 101.047 205.653 101.047Z" fill="#E6E6E6"/>
<path d="M234.993 101.047C238.194 101.047 240.789 98.452 240.789 95.2509C240.789 92.0498 238.194 89.4548 234.993 89.4548C231.791 89.4548 229.196 92.0498 229.196 95.2509C229.196 98.452 231.791 101.047 234.993 101.047Z" fill="#E6E6E6"/>
<path d="M264.333 101.047C267.535 101.047 270.13 98.452 270.13 95.2509C270.13 92.0498 267.535 89.4548 264.333 89.4548C261.132 89.4548 258.537 92.0498 258.537 95.2509C258.537 98.452 261.132 101.047 264.333 101.047Z" fill="#E6E6E6"/>
<path d="M293.673 101.047C296.874 101.047 299.469 98.452 299.469 95.2509C299.469 92.0498 296.874 89.4548 293.673 89.4548C290.472 89.4548 287.877 92.0498 287.877 95.2509C287.877 98.452 290.472 101.047 293.673 101.047Z" fill="#E6E6E6"/>
<path d="M323.014 101.047C326.215 101.047 328.81 98.452 328.81 95.2509C328.81 92.0498 326.215 89.4548 323.014 89.4548C319.813 89.4548 317.218 92.0498 317.218 95.2509C317.218 98.452 319.813 101.047 323.014 101.047Z" fill="#E6E6E6"/>
<path d="M352.355 101.047C355.556 101.047 358.151 98.452 358.151 95.2509C358.151 92.0498 355.556 89.4548 352.355 89.4548C349.154 89.4548 346.559 92.0498 346.559 95.2509C346.559 98.452 349.154 101.047 352.355 101.047Z" fill="#E6E6E6"/>
<path d="M381.695 101.047C384.896 101.047 387.491 98.452 387.491 95.2509C387.491 92.0498 384.896 89.4548 381.695 89.4548C378.493 89.4548 375.898 92.0498 375.898 95.2509C375.898 98.452 378.493 101.047 381.695 101.047Z" fill="#E6E6E6"/>
<path d="M264.333 130.755C267.535 130.755 270.13 128.16 270.13 124.959C270.13 121.758 267.535 119.163 264.333 119.163C261.132 119.163 258.537 121.758 258.537 124.959C258.537 128.16 261.132 130.755 264.333 130.755Z" fill="#FFDF44"/>
<path d="M293.673 130.755C296.874 130.755 299.469 128.16 299.469 124.959C299.469 121.758 296.874 119.163 293.673 119.163C290.472 119.163 287.877 121.758 287.877 124.959C287.877 128.16 290.472 130.755 293.673 130.755Z" fill="#E6E6E6"/>
<path d="M323.014 130.755C326.215 130.755 328.81 128.16 328.81 124.959C328.81 121.758 326.215 119.163 323.014 119.163C319.813 119.163 317.218 121.758 317.218 124.959C317.218 128.16 319.813 130.755 323.014 130.755Z" fill="#E6E6E6"/>
<path d="M352.355 130.755C355.556 130.755 358.151 128.16 358.151 124.959C358.151 121.758 355.556 119.163 352.355 119.163C349.154 119.163 346.559 121.758 346.559 124.959C346.559 128.16 349.154 130.755 352.355 130.755Z" fill="#E6E6E6"/>
<path d="M381.695 130.755C384.896 130.755 387.491 128.16 387.491 124.959C387.491 121.758 384.896 119.163 381.695 119.163C378.493 119.163 375.898 121.758 375.898 124.959C375.898 128.16 378.493 130.755 381.695 130.755Z" fill="#E6E6E6"/>
<path d="M264.333 160.463C267.535 160.463 270.13 157.868 270.13 154.667C270.13 151.466 267.535 148.871 264.333 148.871C261.132 148.871 258.537 151.466 258.537 154.667C258.537 157.868 261.132 160.463 264.333 160.463Z" fill="#E6E6E6"/>
<path d="M293.673 160.463C296.874 160.463 299.469 157.868 299.469 154.667C299.469 151.466 296.874 148.871 293.673 148.871C290.472 148.871 287.877 151.466 287.877 154.667C287.877 157.868 290.472 160.463 293.673 160.463Z" fill="#E6E6E6"/>
<path d="M323.014 160.463C326.215 160.463 328.81 157.868 328.81 154.667C328.81 151.466 326.215 148.871 323.014 148.871C319.813 148.871 317.218 151.466 317.218 154.667C317.218 157.868 319.813 160.463 323.014 160.463Z" fill="#E6E6E6"/>
<path d="M352.355 160.463C355.556 160.463 358.151 157.868 358.151 154.667C358.151 151.466 355.556 148.871 352.355 148.871C349.154 148.871 346.559 151.466 346.559 154.667C346.559 157.868 349.154 160.463 352.355 160.463Z" fill="#FE7F43"/>
<path d="M381.695 160.463C384.896 160.463 387.491 157.868 387.491 154.667C387.491 151.466 384.896 148.871 381.695 148.871C378.493 148.871 375.898 151.466 375.898 154.667C375.898 157.868 378.493 160.463 381.695 160.463Z" fill="#E6E6E6"/>
<path d="M264.333 190.171C267.535 190.171 270.13 187.576 270.13 184.375C270.13 181.174 267.535 178.579 264.333 178.579C261.132 178.579 258.537 181.174 258.537 184.375C258.537 187.576 261.132 190.171 264.333 190.171Z" fill="#E6E6E6"/>
<path d="M293.673 190.171C296.874 190.171 299.469 187.576 299.469 184.375C299.469 181.174 296.874 178.579 293.673 178.579C290.472 178.579 287.877 181.174 287.877 184.375C287.877 187.576 290.472 190.171 293.673 190.171Z" fill="#E6E6E6"/>
<path d="M323.014 190.171C326.215 190.171 328.81 187.576 328.81 184.375C328.81 181.174 326.215 178.579 323.014 178.579C319.813 178.579 317.218 181.174 317.218 184.375C317.218 187.576 319.813 190.171 323.014 190.171Z" fill="#E6E6E6"/>
<path d="M352.355 190.171C355.556 190.171 358.151 187.576 358.151 184.375C358.151 181.174 355.556 178.579 352.355 178.579C349.154 178.579 346.559 181.174 346.559 184.375C346.559 187.576 349.154 190.171 352.355 190.171Z" fill="#E6E6E6"/>
<path d="M381.695 190.171C384.896 190.171 387.491 187.576 387.491 184.375C387.491 181.174 384.896 178.579 381.695 178.579C378.493 178.579 375.898 181.174 375.898 184.375C375.898 187.576 378.493 190.171 381.695 190.171Z" fill="#E6E6E6"/>
<path d="M117.631 219.879C120.832 219.879 123.427 217.284 123.427 214.083C123.427 210.882 120.832 208.287 117.631 208.287C114.43 208.287 111.835 210.882 111.835 214.083C111.835 217.284 114.43 219.879 117.631 219.879Z" fill="#E6E6E6"/>
<path d="M146.972 219.879C150.173 219.879 152.768 217.284 152.768 214.083C152.768 210.882 150.173 208.287 146.972 208.287C143.771 208.287 141.176 210.882 141.176 214.083C141.176 217.284 143.771 219.879 146.972 219.879Z" fill="#E6E6E6"/>
<path d="M176.313 219.879C179.514 219.879 182.109 217.284 182.109 214.083C182.109 210.882 179.514 208.287 176.313 208.287C173.112 208.287 170.517 210.882 170.517 214.083C170.517 217.284 173.112 219.879 176.313 219.879Z" fill="#E6E6E6"/>
<path d="M205.653 219.879C208.854 219.879 211.449 217.284 211.449 214.083C211.449 210.882 208.854 208.287 205.653 208.287C202.452 208.287 199.856 210.882 199.856 214.083C199.856 217.284 202.452 219.879 205.653 219.879Z" fill="#E6E6E6"/>
<path d="M234.993 219.879C238.194 219.879 240.789 217.284 240.789 214.083C240.789 210.882 238.194 208.287 234.993 208.287C231.791 208.287 229.196 210.882 229.196 214.083C229.196 217.284 231.791 219.879 234.993 219.879Z" fill="#E6E6E6"/>
<path d="M264.333 219.879C267.535 219.879 270.13 217.284 270.13 214.083C270.13 210.882 267.535 208.287 264.333 208.287C261.132 208.287 258.537 210.882 258.537 214.083C258.537 217.284 261.132 219.879 264.333 219.879Z" fill="#E6E6E6"/>
<path d="M293.673 219.879C296.874 219.879 299.469 217.284 299.469 214.083C299.469 210.882 296.874 208.287 293.673 208.287C290.472 208.287 287.877 210.882 287.877 214.083C287.877 217.284 290.472 219.879 293.673 219.879Z" fill="#E6E6E6"/>
<path d="M323.014 219.879C326.215 219.879 328.81 217.284 328.81 214.083C328.81 210.882 326.215 208.287 323.014 208.287C319.813 208.287 317.218 210.882 317.218 214.083C317.218 217.284 319.813 219.879 323.014 219.879Z" fill="#E6E6E6"/>
<path d="M352.355 219.879C355.556 219.879 358.151 217.284 358.151 214.083C358.151 210.882 355.556 208.287 352.355 208.287C349.154 208.287 346.559 210.882 346.559 214.083C346.559 217.284 349.154 219.879 352.355 219.879Z" fill="#E6E6E6"/>
<path d="M381.695 219.879C384.896 219.879 387.491 217.284 387.491 214.083C387.491 210.882 384.896 208.287 381.695 208.287C378.493 208.287 375.898 210.882 375.898 214.083C375.898 217.284 378.493 219.879 381.695 219.879Z" fill="#E6E6E6"/>
<path d="M117.628 249.586C120.829 249.586 123.424 246.991 123.424 243.79C123.424 240.588 120.829 237.994 117.628 237.994C114.427 237.994 111.832 240.588 111.832 243.79C111.832 246.991 114.427 249.586 117.628 249.586Z" fill="#E6E6E6"/>
<path d="M146.972 249.587C150.173 249.587 152.768 246.992 152.768 243.791C152.768 240.589 150.173 237.994 146.972 237.994C143.771 237.994 141.176 240.589 141.176 243.791C141.176 246.992 143.771 249.587 146.972 249.587Z" fill="#E6E6E6"/>
<path d="M117.628 279.293C120.829 279.293 123.424 276.698 123.424 273.497C123.424 270.296 120.829 267.701 117.628 267.701C114.427 267.701 111.832 270.296 111.832 273.497C111.832 276.698 114.427 279.293 117.628 279.293Z" fill="#E6E6E6"/>
<path d="M146.972 279.295C150.173 279.295 152.768 276.7 152.768 273.498C152.768 270.297 150.173 267.702 146.972 267.702C143.771 267.702 141.176 270.297 141.176 273.498C141.176 276.7 143.771 279.295 146.972 279.295Z" fill="#E6E6E6"/>
<path d="M205.653 279.295C208.854 279.295 211.449 276.7 211.449 273.498C211.449 270.297 208.854 267.702 205.653 267.702C202.452 267.702 199.856 270.297 199.856 273.498C199.856 276.7 202.452 279.295 205.653 279.295Z" fill="#E6E6E6"/>
<path d="M498.109 68.7132H268.415C267.287 68.7119 266.206 68.2633 265.408 67.4659C264.611 66.6685 264.162 65.5874 264.161 64.4597V7.48397C264.162 6.35629 264.611 5.27517 265.408 4.47778C266.206 3.68038 267.287 3.23182 268.415 3.2305H498.109C499.236 3.23182 500.317 3.68038 501.115 4.47778C501.912 5.27517 502.361 6.35629 502.362 7.48397V64.4598C502.361 65.5874 501.912 66.6686 501.115 67.466C500.317 68.2633 499.236 68.7119 498.109 68.7132ZM268.415 4.93189C267.738 4.93263 267.089 5.20174 266.611 5.68019C266.132 6.15864 265.863 6.80735 265.863 7.48397V64.4598C265.863 65.1364 266.132 65.7851 266.611 66.2635C267.089 66.742 267.738 67.0111 268.415 67.0118H498.109C498.785 67.0111 499.434 66.742 499.912 66.2635C500.391 65.7851 500.66 65.1364 500.661 64.4598V7.48397C500.66 6.80735 500.391 6.15864 499.912 5.68019C499.434 5.20174 498.785 4.93263 498.109 4.93189H268.415Z" fill="#E6E6E6"/>
<path d="M298.189 53.8363C308.056 53.8363 316.054 45.8381 316.054 35.9717C316.054 26.1054 308.056 18.1071 298.189 18.1071C288.323 18.1071 280.324 26.1054 280.324 35.9717C280.324 45.8381 288.323 53.8363 298.189 53.8363Z" fill="#15D1C0"/>
<path d="M339.449 24.0619C338.66 24.0619 337.902 24.3756 337.344 24.934C336.785 25.4923 336.472 26.2497 336.472 27.0393C336.472 27.829 336.785 28.5863 337.344 29.1447C337.902 29.7031 338.66 30.0168 339.449 30.0168H418.566C419.355 30.0168 420.113 29.7031 420.671 29.1447C421.23 28.5863 421.543 27.829 421.543 27.0393C421.543 26.2497 421.23 25.4923 420.671 24.934C420.113 24.3756 419.355 24.0619 418.566 24.0619H339.449Z" fill="#E6E6E6"/>
<path d="M339.449 41.9265C338.66 41.9265 337.902 42.2401 337.344 42.7985C336.785 43.3569 336.472 44.1142 336.472 44.9039C336.472 45.6936 336.785 46.4509 337.344 47.0092C337.902 47.5676 338.66 47.8813 339.449 47.8813H479.817C480.607 47.8813 481.364 47.5676 481.923 47.0092C482.481 46.4509 482.795 45.6936 482.795 44.9039C482.795 44.1142 482.481 43.3569 481.923 42.7985C481.364 42.2401 480.607 41.9265 479.817 41.9265H339.449Z" fill="#E6E6E6"/>
<path d="M234.041 187.943H4.34733C3.21962 187.942 2.13847 187.493 1.34106 186.696C0.543644 185.899 0.0950716 184.818 0.09375 183.69V126.714C0.0950716 125.586 0.543644 124.505 1.34106 123.708C2.13847 122.911 3.21962 122.462 4.34733 122.461H234.041C235.169 122.462 236.25 122.911 237.047 123.708C237.845 124.505 238.293 125.586 238.295 126.714V183.69C238.293 184.818 237.845 185.899 237.047 186.696C236.25 187.493 235.169 187.942 234.041 187.943ZM4.34733 124.162C3.67069 124.163 3.02197 124.432 2.54351 124.91C2.06504 125.389 1.79592 126.037 1.79518 126.714V183.69C1.79592 184.367 2.06504 185.015 2.54351 185.494C3.02197 185.972 3.67069 186.241 4.34733 186.242H234.041C234.718 186.241 235.366 185.972 235.845 185.494C236.323 185.015 236.593 184.367 236.593 183.69V126.714C236.593 126.037 236.323 125.389 235.845 124.91C235.366 124.432 234.718 124.163 234.041 124.162H4.34733Z" fill="#E6E6E6"/>
<path d="M75.3818 143.292C74.5921 143.292 73.8348 143.606 73.2764 144.164C72.718 144.723 72.4043 145.48 72.4043 146.269C72.4043 147.059 72.718 147.816 73.2764 148.375C73.8348 148.933 74.5921 149.247 75.3818 149.247H157.901C158.691 149.247 159.448 148.933 160.007 148.375C160.565 147.816 160.879 147.059 160.879 146.269C160.879 145.48 160.565 144.723 160.007 144.164C159.448 143.606 158.691 143.292 157.901 143.292H75.3818Z" fill="#E6E6E6"/>
<path d="M75.3818 161.157C74.5921 161.157 73.8348 161.47 73.2764 162.029C72.718 162.587 72.4043 163.344 72.4043 164.134C72.4043 164.924 72.718 165.681 73.2764 166.239C73.8348 166.798 74.5921 167.111 75.3818 167.111H215.75C216.54 167.111 217.297 166.798 217.855 166.239C218.414 165.681 218.727 164.924 218.727 164.134C218.727 163.344 218.414 162.587 217.855 162.029C217.297 161.47 216.54 161.157 215.75 161.157H75.3818Z" fill="#E6E6E6"/>
<path d="M410.484 309.46H180.791C179.663 309.458 178.582 309.01 177.784 308.213C176.987 307.415 176.538 306.334 176.537 305.206V248.231C176.538 247.103 176.987 246.022 177.784 245.224C178.582 244.427 179.663 243.978 180.791 243.977H410.484C411.612 243.978 412.693 244.427 413.491 245.224C414.288 246.022 414.737 247.103 414.738 248.231V305.206C414.737 306.334 414.288 307.415 413.491 308.213C412.693 309.01 411.612 309.458 410.484 309.46ZM180.791 245.679C180.114 245.679 179.465 245.948 178.987 246.427C178.508 246.905 178.239 247.554 178.239 248.231V305.206C178.239 305.883 178.508 306.532 178.987 307.01C179.465 307.489 180.114 307.758 180.791 307.758H410.484C411.161 307.758 411.81 307.489 412.288 307.01C412.767 306.532 413.036 305.883 413.037 305.206V248.231C413.036 247.554 412.767 246.905 412.288 246.427C411.81 245.948 411.161 245.679 410.484 245.679H180.791Z" fill="#3F3D56"/>
<path d="M210.566 294.583C220.433 294.583 228.431 286.585 228.431 276.718C228.431 266.852 220.433 258.854 210.566 258.854C200.7 258.854 192.701 266.852 192.701 276.718C192.701 286.585 200.7 294.583 210.566 294.583Z" fill="#15D1C0"/>
<path d="M251.826 264.809C251.036 264.809 250.279 265.122 249.721 265.681C249.162 266.239 248.849 266.996 248.849 267.786C248.849 268.576 249.162 269.333 249.721 269.891C250.279 270.45 251.036 270.763 251.826 270.763H327.54C328.33 270.763 329.087 270.45 329.645 269.891C330.204 269.333 330.517 268.576 330.517 267.786C330.517 266.996 330.204 266.239 329.645 265.681C329.087 265.122 328.33 264.809 327.54 264.809H251.826Z" fill="#E6E6E6"/>
<path d="M251.826 282.673C251.036 282.673 250.279 282.987 249.721 283.545C249.162 284.104 248.849 284.861 248.849 285.651C248.849 286.44 249.162 287.198 249.721 287.756C250.279 288.314 251.036 288.628 251.826 288.628H392.194C392.984 288.628 393.741 288.314 394.3 287.756C394.858 287.198 395.172 286.44 395.172 285.651C395.172 284.861 394.858 284.104 394.3 283.545C393.741 282.987 392.984 282.673 392.194 282.673H251.826Z" fill="#E6E6E6"/>
<path d="M534.05 295.01C524.075 324.935 483.267 293.197 483.267 293.197L494.149 179.844C510.472 167.148 527.702 178.03 527.702 178.03L534.05 295.01Z" fill="#E6E6E6"/>
<path d="M531.907 395.443L545.812 395.589L542.339 435.67L531.909 435.671L531.907 395.443Z" fill="#FFB8B8"/>
<path d="M529.249 432.265H549.789C553.259 432.269 556.586 433.649 559.04 436.103C561.494 438.557 562.874 441.884 562.878 445.354V445.78H529.249V432.265Z" fill="#2F2E41"/>
<path d="M494.213 395.443L478.82 395.442L483.782 435.67L494.211 435.671L494.213 395.443Z" fill="#FFB8B8"/>
<path d="M463.241 445.779V445.354C463.241 441.882 464.621 438.553 467.076 436.098C469.53 433.644 472.86 432.265 476.332 432.265L496.871 432.266L496.871 445.781L463.241 445.779Z" fill="#2F2E41"/>
<path d="M530.969 428.727L512.752 322.541L495.875 427.359L478.775 428.309L474.215 287.871L474.559 287.794C477.386 287.161 543.923 272.547 554.831 293.453L554.886 293.559L545.782 429.205L530.969 428.727Z" fill="#2F2E41"/>
<path d="M511.663 166.56C523.203 166.56 532.557 157.205 532.557 145.666C532.557 134.126 523.203 124.772 511.663 124.772C500.123 124.772 490.769 134.126 490.769 145.666C490.769 157.205 500.123 166.56 511.663 166.56Z" fill="#FFB8B8"/>
<path d="M529.217 303.965C526.768 303.287 525.003 300.474 523.662 295.113C523.431 294.189 501.738 201.782 520.083 185.04L524.312 173.294L530.099 177.152C532.147 177.171 553.086 177.701 554.876 191.123C556.628 204.26 561.397 292.282 556.603 297.757C556.509 297.877 556.39 297.976 556.254 298.045C556.117 298.114 555.967 298.152 555.815 298.156C550.956 298.156 549.482 292.766 549.135 291.047C547.98 291.526 544.54 293.284 538.885 298.938C535.383 302.44 532.637 304.119 530.368 304.119C529.979 304.12 529.592 304.068 529.217 303.965Z" fill="#2F2E41"/>
<path d="M483.874 298.938C478.218 293.282 474.777 291.525 473.624 291.048C473.277 292.766 471.802 298.156 466.944 298.156C466.791 298.152 466.642 298.114 466.505 298.045C466.369 297.976 466.25 297.877 466.156 297.757C461.362 292.282 466.131 204.261 467.883 191.123C469.673 177.701 490.612 177.171 492.659 177.152L498.447 173.294L502.675 185.04C521.02 201.781 499.327 294.189 499.097 295.113C497.756 300.474 495.991 303.287 493.542 303.965C493.167 304.068 492.78 304.12 492.391 304.119C490.122 304.119 487.376 302.44 483.874 298.938Z" fill="#2F2E41"/>
<path d="M528.913 157.601C532.448 155.058 535.125 151.5 536.588 147.399C538.051 143.298 538.231 138.849 537.103 134.643C535.976 130.438 533.595 126.675 530.277 123.856C526.959 121.036 522.861 119.294 518.528 118.86C516.605 118.668 514.533 118.696 512.938 117.604C511.521 116.633 510.758 114.95 509.456 113.831C508.629 113.191 507.679 112.729 506.665 112.473C505.651 112.217 504.596 112.174 503.564 112.345C501.505 112.7 499.509 113.356 497.641 114.291C493.008 116.357 488.083 118.899 485.975 123.513C484.148 127.509 484.954 132.437 487.54 135.99C490.258 139.506 494.221 141.846 498.613 142.528C502.979 143.18 507.437 142.779 511.616 141.357C514.374 140.49 517.096 139.307 519.985 139.211C522.24 139.135 524.467 139.732 526.382 140.926C528.297 142.12 529.813 143.856 530.739 145.914C531.664 147.972 531.956 150.258 531.578 152.483C531.2 154.707 530.169 156.769 528.616 158.406" fill="#2F2E41"/>
<path d="M415.029 281.895C416.235 281.867 417.424 281.602 418.528 281.114C419.631 280.627 420.628 279.927 421.462 279.054C422.295 278.181 422.948 277.153 423.384 276.028C423.82 274.903 424.03 273.703 424.002 272.496L436.187 251.938L426.772 243.307L413.937 263.563C411.568 263.79 409.381 264.928 407.834 266.735C406.287 268.543 405.502 270.88 405.643 273.255C405.785 275.63 406.842 277.858 408.592 279.469C410.343 281.081 412.65 281.95 415.029 281.895V281.895Z" fill="#FFB8B8"/>
<path d="M556.394 304.417C557.405 303.758 558.276 302.906 558.958 301.911C559.64 300.915 560.119 299.795 560.367 298.614C560.616 297.434 560.63 296.216 560.408 295.03C560.186 293.844 559.733 292.713 559.074 291.702L558.607 267.809L546.059 265.428L545.813 289.407C543.919 290.847 542.658 292.966 542.295 295.318C541.932 297.669 542.495 300.069 543.866 302.014C545.237 303.958 547.309 305.296 549.645 305.744C551.982 306.192 554.401 305.716 556.394 304.417V304.417Z" fill="#FFB8B8"/>
<path d="M418.735 248.839L418.593 248.613L418.734 248.387C437.01 219.039 475.373 182.379 475.759 182.012L475.88 181.896L480.619 181.848L485.741 194.608C484.146 197.676 441.167 257.653 435.491 261.631C435.04 261.944 434.527 262.158 433.987 262.26C433.447 262.362 432.891 262.349 432.357 262.222C431.411 262.004 430.511 261.621 429.699 261.09C424.462 257.846 419.003 249.264 418.735 248.839Z" fill="#2F2E41"/>
<path d="M543.67 282.328C543.161 282.154 542.693 281.877 542.297 281.513C541.901 281.149 541.584 280.707 541.367 280.215C538.631 273.83 550.359 193.187 550.859 189.757L550.954 189.108L554.919 191.62L554.958 191.792C555.075 192.307 566.623 243.681 563.493 277.819L563.47 278.063L563.248 278.166C562.771 278.387 553.152 282.805 546.741 282.805C545.697 282.832 544.657 282.671 543.67 282.328V282.328Z" fill="#2F2E41"/>
<path d="M622.663 446.414H396.372C396.147 446.414 395.93 446.324 395.771 446.165C395.611 446.005 395.521 445.789 395.521 445.563C395.521 445.338 395.611 445.121 395.771 444.962C395.93 444.802 396.147 444.713 396.372 444.713H622.663C622.888 444.713 623.105 444.802 623.264 444.962C623.424 445.121 623.513 445.338 623.513 445.563C623.513 445.789 623.424 446.005 623.264 446.165C623.105 446.324 622.888 446.414 622.663 446.414Z" fill="#3F3D56"/>
</svg>
