<svg width="397" height="459" viewBox="0 0 397 459" fill="none" xmlns="http://www.w3.org/2000/svg">
<path d="M187.23 188.629L201.952 197.089C203.441 197.945 205.1 198.466 206.811 198.615C208.523 198.764 210.246 198.538 211.862 197.953C213.477 197.368 214.945 196.437 216.164 195.226C217.383 194.015 218.322 192.553 218.918 190.941V190.941C219.559 189.207 219.784 187.346 219.574 185.509C219.365 183.671 218.727 181.909 217.712 180.363C216.697 178.818 215.334 177.532 213.731 176.609C212.129 175.687 210.332 175.153 208.486 175.052L190.658 174.071L136.953 157.815L128.295 125.397L105.654 138.115L121.222 174.971L187.23 188.629Z" fill="#FFB8B8"/>
<path d="M117.04 20.371C113.634 24.2319 114.249 28.876 116.729 32.6462C119.21 36.4164 123.337 39.5533 126.95 42.8799C129.27 45.0169 131.417 47.2849 132.457 49.8563C133.029 51.1709 133.216 52.6211 132.997 54.0381C132.777 55.455 132.159 56.7804 131.215 57.8599C128.85 60.6581 124.444 62.5531 120.145 64.1774C107.851 68.7896 95.166 72.2827 82.2441 74.6141C93.1301 61.8943 98.5794 47.5695 97.7811 33.7709C97.6136 30.875 97.1834 27.9524 98.1947 25.05C98.8893 23.3079 99.9875 21.7554 101.399 20.5204C102.81 19.2853 104.495 18.4029 106.314 17.9457C110.641 16.7033 116.34 17.9322 117.004 20.7674" fill="#2F2E41"/>
<path d="M23.7773 428.557L39.3548 429.234L70.1003 287.217L43.4185 288.363L23.7773 428.557Z" fill="#FFB8B8"/>
<path d="M179.548 398.08L166.68 404.853L86.1875 285.429L111.822 274.141L179.548 398.08Z" fill="#FFB8B8"/>
<path d="M89.8273 65.0744C103.435 65.0744 114.467 54.0428 114.467 40.4346C114.467 26.8265 103.435 15.7949 89.8273 15.7949C76.2191 15.7949 65.1875 26.8265 65.1875 40.4346C65.1875 54.0428 76.2191 65.0744 89.8273 65.0744Z" fill="#FFB8B8"/>
<path d="M77.2827 53.3533C77.2827 53.3533 68.4782 71.6394 56.2875 70.9622C56.2875 70.9622 33.2606 61.4805 25.8107 87.2165L17.6836 107.534L125.368 125.82C125.368 125.82 119.273 88.571 105.05 87.8937C105.05 87.8937 88.7961 86.5392 90.8279 80.4439C92.8597 74.3485 100.31 60.126 100.31 60.126L77.2827 53.3533Z" fill="#FFB8B8"/>
<path d="M113.177 146.815L96.9227 182.033L110.318 238.957L175.559 361.395C175.559 361.395 145.513 388.352 138.024 392.675C131.527 396.426 77.4387 294.765 75.4636 273.811C74.8117 266.896 62.9516 406.975 62.9516 406.975C62.9516 406.975 18.2395 399.596 5.75391 397.144C5.75391 397.144 14.7493 333.43 20.0533 273.811C24.1418 227.856 20.4242 186.208 43.419 166.456L41.3872 127.175L95.5682 125.143L113.177 146.815Z" fill="#2F2E41"/>
<path d="M29.0227 454.678L53.891 458.289C55.818 459.007 57.9434 458.982 59.8529 458.219C61.7625 457.455 63.3195 456.008 64.2206 454.16V454.16C64.9526 452.658 65.213 450.97 64.9677 449.318C64.7223 447.665 63.9827 446.126 62.8459 444.902L52.2907 433.534L44.6938 417.142C40.1504 412.501 37.0447 414.143 35.3084 421.767L23.1642 417.953L19.98 439.357C19.5035 442.561 20.1417 445.83 21.7878 448.619C23.4339 451.408 25.9881 453.547 29.0227 454.678V454.678Z" fill="#2F2E41"/>
<path d="M170.769 432.281L195.898 432.194C197.91 432.62 200.008 432.283 201.785 431.247C203.561 430.211 204.888 428.551 205.507 426.59V426.59C206.011 424.997 206.02 423.289 205.534 421.69C205.048 420.092 204.09 418.678 202.785 417.635L190.672 407.944L180.746 392.848C175.569 388.927 172.739 391.007 172.144 398.804L159.57 396.819V418.458C159.57 421.697 160.683 424.837 162.721 427.353C164.76 429.87 167.601 431.609 170.769 432.281V432.281Z" fill="#2F2E41"/>
<path d="M77.3821 2.55877C73.1968 0.729618 68.2164 1.44688 64.1757 3.57639C60.135 5.70591 56.9065 9.10185 54.0809 12.6904C44.3515 25.108 38.678 40.2183 37.8304 55.9708C37.6091 60.2767 37.8167 64.8279 40.0585 68.5109C42.522 72.5583 47.0312 74.8817 51.4976 76.4633C66.4719 81.6812 82.9005 80.7775 97.2121 73.9486C89.6869 67.8469 82.724 61.0826 76.407 53.7372C75.2232 52.3605 73.9855 50.5931 74.5875 48.8802C74.9666 48.0467 75.5543 47.3252 76.2938 46.7853L90.8007 34.1873L90.4354 39.2838C93.3205 39.1152 96.0929 38.1049 98.41 36.3778C100.727 34.6506 102.487 32.2824 103.473 29.5657C102.773 30.9775 104.109 32.7114 105.652 33.029C107.195 33.3465 108.758 32.7103 110.205 32.0875C113.715 30.5771 117.528 28.7786 119.085 25.289C119.575 24.0589 119.809 22.7418 119.774 21.4181C119.739 20.0944 119.434 18.7918 118.879 17.5895C117.753 15.1903 116.146 13.0478 114.158 11.2949C109.279 6.79042 103.342 3.58903 96.8979 1.98684C90.4536 0.384642 83.7093 0.433379 77.2888 2.1285" fill="#2F2E41"/>
<path d="M72.4584 185.104L83.2772 198.19C84.3719 199.514 85.7423 200.584 87.2928 201.324C88.8433 202.064 90.5366 202.457 92.2546 202.476C93.9725 202.494 95.6739 202.138 97.24 201.431C98.806 200.724 100.199 199.685 101.322 198.385C102.531 196.985 103.394 195.321 103.842 193.528C104.291 191.734 104.312 189.86 103.903 188.056C103.495 186.253 102.67 184.57 101.493 183.144C100.316 181.718 98.8202 180.588 97.1268 179.845L80.7755 172.673L36.1861 138.611L39.4501 105.216L13.7871 109.183L15.4364 149.158L72.4584 185.104Z" fill="#FFB8B8"/>
<path d="M139.59 155.62C139.59 155.62 129.045 116.998 123.481 117.007C117.918 117.016 110.468 116.339 110.468 116.339C110.468 116.339 101.664 90.6026 56.287 98.7298C10.9105 106.857 30.5511 91.2799 17.6831 97.3752C4.81505 103.471 0.0742188 146.138 0.0742188 146.138C0.0742188 146.138 69.8322 123.111 84.732 135.979C93.2886 143.463 102.594 150.044 112.5 155.62C112.5 155.62 105.727 172.551 139.59 155.62Z" fill="#2F2E41"/>
<path d="M381.422 430.163H107.945V431.951H381.422V430.163Z" fill="#CCCCCC"/>
<path d="M376.653 39.2177H278.792V41.0051H376.653C381.471 41.0051 386.092 42.9191 389.498 46.3259C392.905 49.7327 394.819 54.3534 394.819 59.1714C394.819 63.9893 392.905 68.61 389.498 72.0168C386.092 75.4236 381.471 77.3376 376.653 77.3376H228.573C223.755 77.3376 219.134 75.4236 215.727 72.0168C212.321 68.61 210.407 63.9893 210.407 59.1714C210.407 54.3534 212.321 49.7327 215.727 46.3259C219.134 42.9191 223.755 41.0051 228.573 41.0051H234.107V39.2177H228.573C223.281 39.2177 218.205 41.32 214.463 45.062C210.721 48.804 208.619 53.8793 208.619 59.1714C208.619 64.4634 210.721 69.5387 214.463 73.2807C218.205 77.0227 223.281 79.125 228.573 79.125H376.653C381.945 79.125 387.02 77.0227 390.762 73.2807C394.504 69.5387 396.607 64.4634 396.607 59.1714C396.607 53.8793 394.504 48.804 390.762 45.062C387.02 41.32 381.945 39.2177 376.653 39.2177Z" fill="#3F3D56"/>
<path d="M376.653 100.884H278.792V102.671H376.653C381.471 102.671 386.092 104.585 389.498 107.992C392.905 111.399 394.819 116.02 394.819 120.838C394.819 125.656 392.905 130.276 389.498 133.683C386.092 137.09 381.471 139.004 376.653 139.004H228.573C223.755 139.004 219.134 137.09 215.727 133.683C212.321 130.276 210.407 125.656 210.407 120.838C210.407 116.02 212.321 111.399 215.727 107.992C219.134 104.585 223.755 102.671 228.573 102.671H234.107V100.884H228.573C223.281 100.884 218.205 102.986 214.463 106.728C210.721 110.47 208.619 115.546 208.619 120.838C208.619 126.13 210.721 131.205 214.463 134.947C218.205 138.689 223.281 140.791 228.573 140.791H376.653C381.945 140.791 387.02 138.689 390.762 134.947C394.504 131.205 396.607 126.13 396.607 120.838C396.607 115.546 394.504 110.47 390.762 106.728C387.02 102.986 381.945 100.884 376.653 100.884Z" fill="#3F3D56"/>
<path d="M376.653 162.55H278.792V164.338H376.653C381.471 164.338 386.092 166.252 389.498 169.658C392.905 173.065 394.819 177.686 394.819 182.504C394.819 187.322 392.905 191.943 389.498 195.349C386.092 198.756 381.471 200.67 376.653 200.67H228.573C223.755 200.67 219.134 198.756 215.727 195.349C212.321 191.943 210.407 187.322 210.407 182.504C210.407 177.686 212.321 173.065 215.727 169.658C219.134 166.252 223.755 164.338 228.573 164.338H234.107V162.55H228.573C223.281 162.55 218.205 164.652 214.463 168.395C210.721 172.137 208.619 177.212 208.619 182.504C208.619 187.796 210.721 192.871 214.463 196.613C218.205 200.355 223.281 202.458 228.573 202.458H376.653C381.945 202.458 387.02 200.355 390.762 196.613C394.504 192.871 396.607 187.796 396.607 182.504C396.607 177.212 394.504 172.137 390.762 168.395C387.02 164.652 381.945 162.55 376.653 162.55V162.55Z" fill="#3F3D56"/>
<path d="M245.152 34.4956C243.758 34.5189 242.429 35.089 241.451 36.083C240.474 37.077 239.926 38.4154 239.926 39.8096C239.926 41.2038 240.474 42.5421 241.451 43.5362C242.429 44.5302 243.758 45.1003 245.152 45.1236H268.465C269.871 45.1424 271.228 44.6027 272.238 43.6229C273.247 42.6431 273.827 41.3031 273.85 39.8966C273.873 38.49 273.337 37.1317 272.361 36.1193C271.384 35.1069 270.046 34.523 268.639 34.4956C268.581 34.4946 268.523 34.4946 268.465 34.4956H245.152Z" fill="#15D1C0"/>
<path d="M245.152 97.0556C243.758 97.0789 242.429 97.649 241.451 98.643C240.474 99.6371 239.926 100.975 239.926 102.37C239.926 103.764 240.474 105.102 241.451 106.096C242.429 107.09 243.758 107.66 245.152 107.684H268.465C269.871 107.702 271.228 107.163 272.238 106.183C273.247 105.203 273.827 103.863 273.85 102.457C273.873 101.05 273.337 99.6918 272.361 98.6793C271.384 97.6669 270.046 97.083 268.639 97.0556C268.581 97.0546 268.523 97.0546 268.465 97.0556H245.152Z" fill="#FE7F43"/>
<path d="M245.151 157.828C243.757 157.851 242.428 158.421 241.45 159.415C240.472 160.409 239.924 161.748 239.924 163.142C239.924 164.536 240.472 165.875 241.45 166.869C242.428 167.863 243.757 168.433 245.151 168.456H268.464C269.873 168.478 271.232 167.939 272.244 166.959C273.255 165.979 273.837 164.638 273.86 163.229C273.883 161.821 273.346 160.461 272.367 159.448C271.388 158.435 270.047 157.853 268.639 157.828C268.581 157.827 268.522 157.827 268.464 157.828H245.151Z" fill="#FFDF44"/>
<path d="M235.906 53.8574C234.512 53.8805 233.183 54.4506 232.205 55.4446C231.228 56.4387 230.68 57.7771 230.68 59.1714C230.68 60.5656 231.228 61.9041 232.205 62.8981C233.183 63.8922 234.512 64.4622 235.906 64.4854H369.146C369.845 64.4986 370.54 64.3738 371.19 64.1182C371.841 63.8625 372.435 63.481 372.938 62.9955C373.441 62.51 373.843 61.9301 374.122 61.2889C374.4 60.6477 374.549 59.9578 374.561 59.2588C374.572 58.5599 374.446 57.8655 374.188 57.2155C373.931 56.5655 373.548 55.9727 373.061 55.4709C372.575 54.9692 371.994 54.5684 371.352 54.2915C370.71 54.0146 370.02 53.8671 369.321 53.8574C369.262 53.8564 369.204 53.8564 369.146 53.8574H235.906Z" fill="#E6E6E6"/>
<path d="M235.906 115.523C234.512 115.547 233.183 116.117 232.205 117.111C231.228 118.105 230.68 119.443 230.68 120.837C230.68 122.232 231.228 123.57 232.205 124.564C233.183 125.558 234.512 126.128 235.906 126.152H369.146C369.845 126.165 370.54 126.04 371.19 125.784C371.841 125.529 372.435 125.147 372.938 124.662C373.441 124.176 373.843 123.596 374.122 122.955C374.4 122.314 374.549 121.624 374.561 120.925C374.572 120.226 374.446 119.532 374.188 118.882C373.931 118.232 373.548 117.639 373.061 117.137C372.575 116.635 371.994 116.235 371.352 115.958C370.71 115.681 370.02 115.533 369.321 115.523C369.262 115.522 369.204 115.522 369.146 115.523H235.906Z" fill="#E6E6E6"/>
<path d="M235.906 177.19C234.512 177.213 233.183 177.783 232.205 178.777C231.228 179.771 230.68 181.11 230.68 182.504C230.68 183.898 231.228 185.237 232.205 186.231C233.183 187.225 234.512 187.795 235.906 187.818H369.146C369.845 187.831 370.54 187.706 371.19 187.451C371.841 187.195 372.435 186.813 372.938 186.328C373.441 185.842 373.843 185.262 374.122 184.621C374.4 183.98 374.549 183.29 374.561 182.591C374.572 181.892 374.446 181.198 374.188 180.548C373.931 179.898 373.548 179.305 373.061 178.803C372.575 178.302 371.994 177.901 371.352 177.624C370.71 177.347 370.02 177.199 369.321 177.19C369.262 177.189 369.204 177.189 369.146 177.19H235.906Z" fill="#E6E6E6"/>
<path d="M371.279 376.814C369.889 367.858 367.179 359.158 363.237 350.997L362.662 349.809L358.394 354.542L361.556 347.492L361.35 347.083C358.559 341.558 355.465 336.191 352.084 331.006L351.457 330.046L350.62 330.973L351.206 329.668L350.913 329.228C346.725 322.946 343.507 318.973 343.475 318.933L342.566 317.814L341.98 319.149C341.873 319.393 331.239 343.898 329.83 368.112L329.808 368.489L336.965 377.14L329.666 372.558L329.679 374.221C329.701 377.067 329.895 379.909 330.259 382.732C330.58 385.16 330.958 387.53 331.394 389.843C332.084 389.864 332.755 390.074 333.334 390.448C332.83 387.864 332.395 385.208 332.03 382.48C331.748 380.302 331.57 378.09 331.5 375.884L345.618 384.748L331.637 367.848C332.91 347.376 340.81 326.75 343.028 321.306C344.219 322.85 346.465 325.847 349.151 329.85L344.267 340.738L351.23 333.018C354.248 337.716 357.029 342.564 359.561 347.542L352.041 364.306L362.208 353.032C365.76 360.669 368.218 368.768 369.511 377.09C371.29 390.533 370.943 403.446 368.533 413.452C366.224 423.037 362.154 428.929 357.368 429.617C356.382 429.753 355.38 429.693 354.418 429.442C353.647 429.99 352.718 430.273 351.772 430.249H351.511C352.996 431.073 354.66 431.52 356.358 431.551C356.778 431.551 357.197 431.521 357.612 431.461C363.24 430.653 367.734 424.418 370.266 413.906C372.731 403.673 373.092 390.508 371.279 376.814Z" fill="#3F3D56"/>
<path d="M355.527 430.844C348.165 430.844 337.552 426.795 327.024 419.423C325.475 418.329 323.995 417.14 322.594 415.861L321.415 414.784L325.873 413.501L319.937 413.283L319.686 413.021C308.56 401.367 301.635 384.907 301.567 384.743L301.025 383.442L302.432 383.506C302.572 383.512 305.917 383.67 310.944 384.383L311.258 384.428V384.425L312.36 384.593C316.465 385.217 320.532 386.071 324.541 387.153L324.969 387.269L326.306 390.563L326.103 387.608L327.331 387.963C333.147 389.641 338.671 392.202 343.71 395.556C359.72 406.767 368.578 420.779 363.896 427.466C362.295 429.751 359.348 430.843 355.527 430.844ZM325.013 415.608C325.99 416.437 327.008 417.225 328.052 417.96C342.715 428.229 358.459 432.111 362.431 426.441C366.403 420.77 357.368 407.302 342.703 397.033C338.178 394.023 333.249 391.672 328.063 390.049L328.856 401.593L323.647 388.764C320.217 387.853 316.707 387.105 313.194 386.533L313.769 394.911L310.185 386.082C307.407 385.7 305.168 385.493 303.806 385.388C305.663 389.465 311.798 402.057 320.73 411.524L337.112 412.123L325.013 415.608Z" fill="#3F3D56"/>
</svg>
