<svg width="381" height="441" viewBox="0 0 381 441" fill="none" xmlns="http://www.w3.org/2000/svg">
<path d="M201.174 180.453L187.029 188.581C185.598 189.403 184.004 189.904 182.36 190.047C180.715 190.191 179.059 189.973 177.507 189.411C175.955 188.849 174.544 187.955 173.373 186.791C172.203 185.627 171.299 184.222 170.727 182.674V182.674C170.112 181.007 169.896 179.219 170.097 177.454C170.298 175.689 170.911 173.996 171.886 172.511C172.861 171.025 174.171 169.79 175.711 168.903C177.25 168.017 178.977 167.504 180.751 167.407L197.881 166.465L249.482 150.846L257.801 119.698L279.554 131.917L264.597 167.329L201.174 180.453Z" fill="#FFB8B8"/>
<path d="M268.617 18.785C271.889 22.4946 271.298 26.9569 268.915 30.5794C266.532 34.2019 262.566 37.2159 259.095 40.4123C256.865 42.4656 254.803 44.6447 253.804 47.1153C253.254 48.3785 253.074 49.7719 253.285 51.1333C253.496 52.4948 254.09 53.7683 254.996 54.8055C257.269 57.4941 261.503 59.3148 265.633 60.8755C277.446 65.3071 289.634 68.6633 302.049 70.9034C291.59 58.6818 286.354 44.9181 287.121 31.66C287.282 28.8776 287.695 26.0694 286.724 23.2808C286.056 21.6068 285.001 20.1152 283.645 18.9285C282.289 17.7419 280.67 16.894 278.923 16.4547C274.765 15.261 269.289 16.4417 268.652 19.1658" fill="#2F2E41"/>
<path d="M358.224 410.982L343.257 411.633L313.716 275.178L339.353 276.28L358.224 410.982Z" fill="#FFB8B8"/>
<path d="M208.555 381.699L220.92 388.206L298.259 273.461L273.629 262.615L208.555 381.699Z" fill="#FFB8B8"/>
<path d="M294.762 61.7374C281.687 61.7374 271.088 51.1379 271.088 38.0628C271.088 24.9877 281.687 14.3882 294.762 14.3882C307.838 14.3882 318.437 24.9877 318.437 38.0628C318.437 51.1379 307.838 61.7374 294.762 61.7374Z" fill="#FFB8B8"/>
<path d="M306.816 50.4755C306.816 50.4755 315.276 68.0453 326.989 67.3946C326.989 67.3946 349.114 58.2843 356.272 83.0122L364.081 102.534L260.614 120.104C260.614 120.104 266.471 84.3136 280.136 83.6629C280.136 83.6629 295.754 82.3615 293.802 76.5048C291.85 70.6482 284.692 56.9828 284.692 56.9828L306.816 50.4755Z" fill="#FFB8B8"/>
<path d="M272.327 140.277L287.945 174.115L275.074 228.809L212.389 346.451C212.389 346.451 241.258 372.352 248.454 376.506C254.697 380.109 306.666 282.431 308.564 262.298C309.19 255.654 320.586 390.245 320.586 390.245C320.586 390.245 363.546 383.156 375.543 380.8C375.543 380.8 366.9 319.582 361.803 262.298C357.875 218.143 361.447 178.126 339.353 159.148L341.305 121.405L289.247 119.453L272.327 140.277Z" fill="#2F2E41"/>
<path d="M353.185 436.08L329.291 439.549C327.439 440.239 325.397 440.215 323.563 439.482C321.728 438.748 320.232 437.358 319.366 435.582V435.582C318.663 434.139 318.412 432.517 318.648 430.93C318.884 429.342 319.595 427.863 320.687 426.687L330.829 415.765L338.128 400.014C342.493 395.556 345.477 397.132 347.146 404.458L358.814 400.794L361.874 421.359C362.332 424.437 361.718 427.579 360.137 430.259C358.555 432.938 356.101 434.993 353.185 436.08V436.08Z" fill="#2F2E41"/>
<path d="M216.992 414.561L192.848 414.476C190.915 414.886 188.899 414.562 187.192 413.567C185.485 412.571 184.21 410.976 183.615 409.092V409.092C183.131 407.561 183.122 405.92 183.589 404.385C184.056 402.849 184.977 401.49 186.23 400.488L197.869 391.177L207.406 376.672C212.38 372.904 215.1 374.903 215.672 382.394L227.752 380.487V401.279C227.752 404.391 226.684 407.408 224.725 409.826C222.766 412.243 220.036 413.915 216.992 414.561V414.561Z" fill="#2F2E41"/>
<path d="M306.721 1.67053C310.742 -0.0869802 315.527 0.602184 319.41 2.64828C323.292 4.69438 326.394 7.9573 329.109 11.4053C338.458 23.3365 343.909 37.8549 344.723 52.9904C344.936 57.1276 344.736 61.5005 342.582 65.0393C340.215 68.9282 335.883 71.1605 331.591 72.6802C317.204 77.6937 301.418 76.8254 287.668 70.2639C294.898 64.4012 301.588 57.902 307.658 50.8443C308.795 49.5215 309.984 47.8233 309.406 46.1775C309.042 45.3767 308.477 44.6834 307.766 44.1647L293.828 32.0602L294.179 36.957C291.407 36.795 288.743 35.8243 286.517 34.1648C284.29 32.5053 282.599 30.2298 281.652 27.6196C282.324 28.9761 281.041 30.6421 279.558 30.9472C278.075 31.2523 276.574 30.641 275.184 30.0426C271.811 28.5914 268.148 26.8633 266.652 23.5104C266.181 22.3285 265.955 21.063 265.989 19.7912C266.023 18.5193 266.316 17.2677 266.849 16.1125C267.931 13.8072 269.475 11.7487 271.386 10.0644C276.074 5.73641 281.777 2.66043 287.969 1.12099C294.161 -0.418443 300.641 -0.371615 306.81 1.25711" fill="#2F2E41"/>
<path d="M311.45 177.065L301.055 189.639C300.003 190.911 298.687 191.939 297.197 192.65C295.707 193.361 294.08 193.739 292.43 193.757C290.779 193.774 289.144 193.432 287.639 192.753C286.135 192.074 284.796 191.075 283.717 189.826C282.556 188.481 281.727 186.883 281.296 185.159C280.865 183.435 280.845 181.635 281.237 179.902C281.629 178.169 282.423 176.552 283.553 175.182C284.684 173.812 286.121 172.726 287.748 172.013L303.459 165.121L346.302 132.394L343.166 100.307L367.823 104.119L366.239 142.528L311.45 177.065Z" fill="#FFB8B8"/>
<path d="M246.949 148.736C246.949 148.736 257.081 111.627 262.427 111.635C267.772 111.644 274.93 110.993 274.93 110.993C274.93 110.993 283.39 86.2656 326.989 94.0744C370.588 101.883 351.717 86.9163 364.081 92.7729C376.445 98.6296 381 139.626 381 139.626C381 139.626 313.974 117.501 299.658 129.865C291.437 137.055 282.496 143.379 272.978 148.736C272.978 148.736 279.486 165.004 246.949 148.736Z" fill="#2F2E41"/>
<path d="M14.5893 412.526H277.353V414.243H14.5893V412.526Z" fill="#CCCCCC"/>
<path d="M19.172 36.8936H113.2V38.611H19.172C14.5428 38.611 10.1031 40.4499 6.82971 43.7233C3.55633 46.9967 1.71741 51.4363 1.71741 56.0656C1.71741 60.6949 3.55633 65.1345 6.82971 68.4079C10.1031 71.6813 14.5428 73.5202 19.172 73.5202H161.452C166.081 73.5202 170.521 71.6813 173.794 68.4079C177.068 65.1345 178.906 60.6949 178.906 56.0656C178.906 51.4363 177.068 46.9967 173.794 43.7233C170.521 40.4499 166.081 38.611 161.452 38.611H156.135V36.8936H161.452C166.537 36.8936 171.413 38.9135 175.009 42.5089C178.604 46.1044 180.624 50.9809 180.624 56.0656C180.624 61.1503 178.604 66.0268 175.009 69.6223C171.413 73.2177 166.537 75.2376 161.452 75.2376H19.172C14.0873 75.2376 9.2108 73.2177 5.61534 69.6223C2.01988 66.0268 -5.46622e-06 61.1503 -5.46622e-06 56.0656C-5.46622e-06 50.9809 2.01988 46.1044 5.61534 42.5089C9.2108 38.9135 14.0873 36.8936 19.172 36.8936Z" fill="#3F3D56"/>
<path d="M19.172 96.1443H113.2V97.8617H19.172C14.5428 97.8617 10.1031 99.7007 6.82971 102.974C3.55633 106.247 1.71741 110.687 1.71741 115.316C1.71741 119.946 3.55633 124.385 6.82971 127.659C10.1031 130.932 14.5428 132.771 19.172 132.771H161.452C166.081 132.771 170.521 130.932 173.794 127.659C177.068 124.385 178.906 119.946 178.906 115.316C178.906 110.687 177.068 106.247 173.794 102.974C170.521 99.7007 166.081 97.8617 161.452 97.8617H156.135V96.1443H161.452C166.537 96.1443 171.413 98.1642 175.009 101.76C178.604 105.355 180.624 110.232 180.624 115.316C180.624 120.401 178.604 125.278 175.009 128.873C171.413 132.468 166.537 134.488 161.452 134.488H19.172C14.0873 134.488 9.2108 132.468 5.61534 128.873C2.01988 125.278 -5.46622e-06 120.401 -5.46622e-06 115.316C-5.46622e-06 110.232 2.01988 105.355 5.61534 101.76C9.2108 98.1642 14.0873 96.1443 19.172 96.1443Z" fill="#3F3D56"/>
<path d="M19.172 155.395H113.2V157.112H19.172C14.5428 157.112 10.1031 158.951 6.82971 162.225C3.55633 165.498 1.71741 169.938 1.71741 174.567C1.71741 179.196 3.55633 183.636 6.82971 186.909C10.1031 190.183 14.5428 192.022 19.172 192.022H161.452C166.081 192.022 170.521 190.183 173.794 186.909C177.068 183.636 178.906 179.196 178.906 174.567C178.906 169.938 177.068 165.498 173.794 162.225C170.521 158.951 166.081 157.112 161.452 157.112H156.135V155.395H161.452C166.537 155.395 171.413 157.415 175.009 161.01C178.604 164.606 180.624 169.482 180.624 174.567C180.624 179.652 178.604 184.528 175.009 188.124C171.413 191.719 166.537 193.739 161.452 193.739H19.172C14.0873 193.739 9.2108 191.719 5.61534 188.124C2.01988 184.528 -5.46622e-06 179.652 -5.46622e-06 174.567C-5.46622e-06 169.482 2.01988 164.606 5.61534 161.01C9.2108 157.415 14.0873 155.395 19.172 155.395V155.395Z" fill="#3F3D56"/>
<path d="M145.522 32.3564C146.861 32.3788 148.138 32.9266 149.077 33.8817C150.016 34.8368 150.543 36.1227 150.543 37.4623C150.543 38.8018 150.016 40.0878 149.077 41.0429C148.138 41.998 146.861 42.5458 145.522 42.5682H123.122C121.77 42.5862 120.467 42.0676 119.497 41.1262C118.527 40.1848 117.97 38.8973 117.948 37.5458C117.926 36.1944 118.44 34.8893 119.378 33.9166C120.317 32.9438 121.603 32.3828 122.954 32.3564C123.01 32.3555 123.066 32.3555 123.122 32.3564H145.522Z" fill="#15D1C0"/>
<path d="M145.522 92.4658C146.861 92.4882 148.138 93.0359 149.077 93.991C150.016 94.9461 150.543 96.2321 150.543 97.5717C150.543 98.9112 150.016 100.197 149.077 101.152C148.138 102.107 146.861 102.655 145.522 102.678H123.122C121.77 102.696 120.467 102.177 119.497 101.236C118.527 100.294 117.97 99.0066 117.948 97.6552C117.926 96.3038 118.44 94.9987 119.378 94.0259C120.317 93.0532 121.603 92.4922 122.954 92.4658C123.01 92.4649 123.066 92.4649 123.122 92.4658H145.522Z" fill="#FE7F43"/>
<path d="M145.522 150.858C146.861 150.88 148.139 151.427 149.078 152.383C150.018 153.338 150.544 154.624 150.544 155.964C150.544 157.303 150.018 158.59 149.078 159.545C148.139 160.5 146.861 161.048 145.522 161.07H123.122C121.768 161.09 120.462 160.573 119.49 159.631C118.518 158.69 117.96 157.401 117.938 156.047C117.915 154.694 118.431 153.388 119.372 152.414C120.312 151.441 121.601 150.881 122.954 150.858C123.01 150.857 123.066 150.857 123.122 150.858H145.522Z" fill="#FFDF44"/>
<path d="M154.406 50.9597C155.746 50.9819 157.023 51.5297 157.962 52.4848C158.901 53.4399 159.428 54.7259 159.428 56.0656C159.428 57.4052 158.901 58.6912 157.962 59.6463C157.023 60.6015 155.746 61.1492 154.406 61.1714H26.3853C25.7137 61.1841 25.0463 61.0643 24.4211 60.8186C23.796 60.573 23.2254 60.2064 22.7421 59.7399C22.2589 59.2734 21.8724 58.7162 21.6048 58.1001C21.3372 57.484 21.1938 56.8212 21.1828 56.1496C21.1718 55.478 21.2933 54.8109 21.5405 54.1863C21.7877 53.5618 22.1557 52.9922 22.6234 52.5101C23.0911 52.028 23.6493 51.6429 24.2661 51.3768C24.8828 51.1108 25.546 50.969 26.2176 50.9597C26.2735 50.9587 26.3294 50.9587 26.3853 50.9597H154.406Z" fill="#E6E6E6"/>
<path d="M154.406 110.21C155.746 110.233 157.023 110.78 157.962 111.735C158.901 112.691 159.428 113.977 159.428 115.316C159.428 116.656 158.901 117.942 157.962 118.897C157.023 119.852 155.746 120.4 154.406 120.422H26.3853C25.7137 120.435 25.0463 120.315 24.4211 120.069C23.796 119.824 23.2254 119.457 22.7421 118.991C22.2589 118.524 21.8724 117.967 21.6048 117.351C21.3372 116.735 21.1938 116.072 21.1828 115.4C21.1718 114.729 21.2933 114.061 21.5405 113.437C21.7877 112.812 22.1557 112.243 22.6234 111.761C23.0911 111.279 23.6493 110.893 24.2661 110.627C24.8828 110.361 25.546 110.22 26.2176 110.21C26.2735 110.209 26.3294 110.209 26.3853 110.21H154.406Z" fill="#E6E6E6"/>
<path d="M154.406 169.461C155.746 169.483 157.023 170.031 157.962 170.986C158.901 171.941 159.428 173.227 159.428 174.567C159.428 175.907 158.901 177.193 157.962 178.148C157.023 179.103 155.746 179.651 154.406 179.673H26.3853C25.7137 179.686 25.0463 179.566 24.4211 179.32C23.796 179.074 23.2254 178.708 22.7421 178.241C22.2589 177.775 21.8724 177.218 21.6048 176.602C21.3372 175.985 21.1938 175.323 21.1828 174.651C21.1718 173.979 21.2933 173.312 21.5405 172.688C21.7877 172.063 22.1557 171.494 22.6234 171.012C23.0911 170.529 23.6493 170.144 24.2661 169.878C24.8828 169.612 25.546 169.471 26.2176 169.461C26.2735 169.46 26.3294 169.46 26.3853 169.461H154.406Z" fill="#E6E6E6"/>
<path d="M24.337 361.266C25.6717 352.661 28.2756 344.302 32.0636 336.461L32.6158 335.319L36.7173 339.866L33.6783 333.093L33.877 332.699C36.5588 327.391 39.5309 322.234 42.7798 317.253L43.3824 316.33L44.1861 317.221L43.6234 315.966L43.9052 315.544C47.9291 309.508 51.0205 305.691 51.0511 305.652L51.9254 304.577L52.4876 305.859C52.5908 306.095 62.8084 329.639 64.1619 352.905L64.1833 353.267L57.3065 361.58L64.3196 357.177L64.3075 358.775C64.2861 361.509 64.1 364.24 63.7502 366.952C63.4413 369.285 63.0778 371.562 62.6596 373.785C61.9967 373.805 61.3519 374.006 60.7948 374.366C61.2793 371.883 61.6971 369.331 62.0483 366.71C62.3191 364.617 62.4898 362.492 62.5577 360.372L48.9928 368.889L62.4261 352.651C61.2031 332.981 53.6118 313.163 51.4806 307.932C50.3368 309.415 48.1791 312.295 45.5979 316.142L50.2902 326.603L43.6004 319.185C40.7001 323.7 38.0285 328.358 35.5958 333.141L42.8214 349.248L33.0519 338.415C29.6396 345.753 27.2776 353.535 26.0355 361.532C24.3256 374.447 24.6594 386.855 26.9755 396.469C29.194 405.679 33.1039 411.339 37.7031 412.001C38.6496 412.131 39.6127 412.074 40.5371 411.832C41.2784 412.359 42.1705 412.631 43.0795 412.608H43.3302C41.9036 413.4 40.3043 413.83 38.6729 413.859C38.2698 413.859 37.8672 413.83 37.4683 413.773C32.0611 412.996 27.7428 407.005 25.3097 396.905C22.9416 387.073 22.5948 374.424 24.337 361.266Z" fill="#3F3D56"/>
<path d="M39.4702 413.18C46.5432 413.18 56.7412 409.289 66.8562 402.206C68.345 401.155 69.7666 400.012 71.1128 398.784L72.2457 397.749L67.9622 396.515L73.6658 396.307L73.9065 396.054C84.5976 384.858 91.2504 369.042 91.3167 368.884L91.8366 367.635L90.4848 367.696C90.3502 367.702 87.1364 367.854 82.3061 368.539L82.0051 368.582V368.579L80.946 368.74C77.0017 369.34 73.0943 370.161 69.2423 371.2L68.831 371.311L67.5459 374.477L67.7408 371.637L66.5618 371.978C60.9735 373.591 55.6658 376.052 50.8238 379.274C35.4413 390.046 26.9297 403.508 31.4291 409.934C32.967 412.13 35.7981 413.179 39.4702 413.18ZM68.7891 398.541C67.8495 399.336 66.8717 400.094 65.8687 400.801C51.7802 410.667 36.653 414.397 32.8362 408.949C29.0203 403.5 37.7012 390.56 51.7919 380.693C56.139 377.801 60.8752 375.542 65.8582 373.983L65.0964 385.075L70.101 372.748C73.3971 371.873 76.769 371.153 80.1447 370.604L79.5917 378.654L83.0362 370.171C85.705 369.804 87.8563 369.605 89.1649 369.504C87.3809 373.422 81.4856 385.52 72.904 394.616L57.1639 395.192L68.7891 398.541Z" fill="#3F3D56"/>
</svg>
