<svg xmlns="http://www.w3.org/2000/svg" viewBox="0 0 227.12 42.52"><defs><style>.cls-1{fill:#fff;}.cls-2{fill:#ffdf44;}.cls-3{fill:#ef7c49;}.cls-4{fill:#49bab4;}.cls-5{fill:#576bb1;}</style></defs><g id="Capa_2" data-name="Capa 2"><g id="Capa_1-2" data-name="Capa 1"><path class="cls-1" d="M214.85.51h7.7V11.82h4.57v6.63h-4.57V42.52h-7.7V18.45H210.9V11.82h3.95Z"/><rect class="cls-1" x="198.39" y="13.75" width="8.26" height="28.59"/><rect class="cls-2" x="198.45" y="0.69" width="8.26" height="7.68"/><rect class="cls-3" x="183.09" y="32.12" width="10.28" height="10.4" transform="translate(376.45 74.64) rotate(-180)"/><rect class="cls-4" x="210.9" y="11.85" width="16.22" height="6.59"/><path class="cls-1" d="M179.52,26.87c0-8.55-5.78-14.55-13.92-14.55-8.43,0-13.92,5.89-13.92,14.9,0,5.89,2.54,15.3,14.15,15.3,8.55,0,11.61-4.79,12.88-6.76l-5.66-3.23c-1.85,3-4,4.5-6.59,4.5-3.87,0-5.71-2.31-5.94-7.22h19Zm-8.38-2.25H160.52c-.06-1.56-.29-7,5.42-7C171.32,17.63,171.2,23.06,171.14,24.62Z"/><rect class="cls-5" x="160.51" y="24.62" width="10.64" height="5.2"/><path class="cls-1" d="M101.92,34.37c-1.09,2.48-3.52,8-13,8s-14.61-5.6-14.61-15.71c0-6.29,3.06-11.43,8-13.45a16.45,16.45,0,0,1,6.52-1c6.41,0,10,2.31,12.36,7.56l-6.58,3.53c-1.27-3.7-2.77-5-5.89-5-3.76,0-5.84,3.12-5.84,8.66,0,6.3,2,9.36,6.13,9.36,3.06,0,4.9-1.62,6.35-5.49Z"/><path class="cls-1" d="M139.14,0V17c-2.6-3.47-5-4.74-8.78-4.74-7.1,0-12.07,5.84-12.07,14.15,0,5.89,1.44,10.28,4.21,13.06,2,2,4.28,2.88,7.8,2.88,5.66,0,7.74-3,8.95-4.79v4h8.15V0Zm.11,33c-1.79,2.94-3.75,4.21-6.41,4.21-4,0-5.72-3.12-5.72-10.22,0-4.5.58-6.7,2.08-8.26a5.26,5.26,0,0,1,3.76-1.5,7.32,7.32,0,0,1,6.29,4.33Z"/><rect class="cls-1" x="105.74" y="13.8" width="8.26" height="28.59"/><rect class="cls-5" x="105.74" y="0.56" width="8.26" height="7.68"/><g id="D"><path class="cls-1" d="M0,.75H21C32,.75,39.1,9.07,39.1,22c0,12.59-6.93,20.44-17.9,20.44H0ZM10.28,9.36V33.67H20.56c4.3,0,7.86-4,7.86-12S24.28,9.36,20.56,9.36Z"/></g><rect class="cls-5" x="-4.97" y="14.33" width="24.32" height="14.37" transform="translate(-14.33 28.7) rotate(-90)"/><path class="cls-1" d="M70.7,26.74c0-8.55-5.78-14.55-13.92-14.55-8.43,0-13.92,5.89-13.92,14.9,0,5.89,2.54,15.3,14.15,15.3,8.55,0,11.61-4.79,12.88-6.75L64.23,32.4c-1.85,3-4,4.5-6.59,4.5-3.86,0-5.71-2.3-5.94-7.21h19Zm-8.38-2.25H51.7c-.06-1.56-.29-7,5.42-7C62.5,17.5,62.38,22.93,62.32,24.49Z"/><rect class="cls-5" x="51.7" y="24.49" width="10.64" height="5.2"/></g></g></svg>