<svg xmlns="http://www.w3.org/2000/svg" viewBox="0 0 86.86 41.66"><defs><style>.cls-1{fill:#fff;}.cls-2{fill:#ffdf44;}.cls-3{fill:#ef7c49;}.cls-4{fill:#49bab4;}.cls-5{fill:#576bb1;}</style></defs><g id="Capa_2" data-name="Capa 2"><g id="Capa_1-2" data-name="Capa 1"><rect class="cls-1" x="57.97" y="13.05" width="8.26" height="28.59"/><rect class="cls-2" x="58.03" width="8.26" height="7.68"/><rect class="cls-3" x="41.67" y="31.24" width="10.28" height="10.4" transform="translate(93.62 72.89) rotate(-180)"/><path class="cls-1" d="M74.47,0h7.7V11.24h4.57v6.57H82.17V41.66h-7.7V17.81h-4V11.24h4Z"/><rect class="cls-4" x="70.4" y="10.92" width="16.46" height="7.28"/><g id="D"><path class="cls-1" d="M0,0H21C32,0,39.1,8.32,39.1,21.2c0,12.59-6.93,20.44-17.9,20.44H0ZM10.28,8.61V32.92H20.56c4.3,0,7.86-4,7.86-12S24.28,8.61,20.56,8.61Z"/></g><rect class="cls-5" x="-4.97" y="13.58" width="24.32" height="14.37" transform="translate(-13.58 27.95) rotate(-90)"/></g></g></svg>